<svg width="82" height="82" viewBox="0 0 82 82" fill="none" xmlns="http://www.w3.org/2000/svg">
<rect x="0.438171" y="0.591309" width="81" height="81" rx="8" fill="#B1DF1E"/>
<path d="M21.7982 53.0913C21.6271 53.0913 21.456 53.0673 21.2971 53.0193L15.4426 51.4233C14.9537 51.2913 14.5504 50.9793 14.2937 50.5353C14.0493 50.1033 13.9882 49.5873 14.1226 49.1073L18.6448 33.6993C18.926 32.7273 19.9771 32.1513 20.9793 32.4273L26.8337 34.0233C27.3226 34.1553 27.7382 34.4673 27.9826 34.9113C28.2271 35.3553 28.2882 35.8593 28.1537 36.3393L23.6315 51.7473C23.3871 52.5513 22.6171 53.0913 21.7982 53.0913ZM21.6148 51.8673C21.9693 51.9633 22.336 51.7593 22.446 51.4113L26.9682 36.0033C27.0171 35.8353 26.9926 35.6553 26.9071 35.4993C26.8215 35.3433 26.6748 35.2353 26.5037 35.1873L20.6493 33.5793C20.2948 33.4833 19.9282 33.6873 19.8182 34.0353L15.296 49.4433C15.2471 49.6113 15.2715 49.7913 15.3571 49.9473C15.4426 50.1033 15.5893 50.2113 15.7604 50.2593L21.6148 51.8673Z" fill="#1F6252"/>
<path d="M22.5804 39.8313C22.3971 39.8313 22.2137 39.8073 22.0304 39.7593C21.5048 39.6153 21.0648 39.2793 20.7959 38.8113C20.5271 38.3433 20.4537 37.8033 20.6004 37.2873C20.9059 36.2193 22.0426 35.5953 23.1304 35.8833C24.2182 36.1713 24.8537 37.2993 24.5604 38.3673C24.4137 38.8833 24.0715 39.3153 23.5948 39.5793C23.2648 39.7473 22.9226 39.8313 22.5804 39.8313ZM22.5682 36.9993C22.4215 36.9993 22.2871 37.0353 22.1648 37.1073C21.9693 37.2153 21.8348 37.3833 21.7737 37.5993C21.6515 38.0313 21.9082 38.4753 22.3482 38.5953C22.5559 38.6553 22.7882 38.6313 22.9837 38.5233C23.1793 38.4153 23.3137 38.2473 23.3748 38.0313C23.4971 37.5993 23.2404 37.1553 22.8004 37.0353C22.7148 37.0113 22.6415 36.9993 22.5682 36.9993Z" fill="#1F6252"/>
<path d="M60.0782 53.0913C59.2593 53.0913 58.4893 52.5633 58.2571 51.7473L53.7349 36.3393C53.6004 35.8593 53.6493 35.3553 53.906 34.9113C54.1626 34.4673 54.566 34.1553 55.0549 34.0233L60.9093 32.4273C61.9115 32.1513 62.9504 32.7273 63.2437 33.6993L67.766 49.1073C67.9004 49.5873 67.8515 50.0913 67.5949 50.5353C67.3504 50.9673 66.9349 51.2913 66.446 51.4233L60.5915 53.0193C60.4204 53.0673 60.2493 53.0913 60.0782 53.0913ZM61.4104 33.5553C61.3493 33.5553 61.2882 33.5673 61.2271 33.5793L55.3726 35.1753C55.2015 35.2233 55.0549 35.3313 54.9693 35.4873C54.8837 35.6433 54.8593 35.8233 54.9082 35.9913L59.4304 51.3993C59.5282 51.7473 59.9071 51.9513 60.2615 51.8553L66.116 50.2593C66.2871 50.2113 66.4337 50.1033 66.5193 49.9473C66.6049 49.7913 66.6293 49.6113 66.5804 49.4433L62.0582 34.0353C61.9726 33.7473 61.6915 33.5553 61.4104 33.5553Z" fill="#1F6252"/>
<path d="M59.2593 39.8313C58.3671 39.8313 57.536 39.2433 57.2793 38.3553C57.1326 37.8393 57.206 37.2993 57.4626 36.8313C57.7315 36.3633 58.1715 36.0273 58.6971 35.8833C59.7849 35.5833 60.9215 36.2193 61.2271 37.2873C61.5326 38.3553 60.8849 39.4713 59.7971 39.7713C59.626 39.8073 59.4426 39.8313 59.2593 39.8313ZM59.2593 36.9993C59.186 36.9993 59.1126 37.0113 59.0393 37.0353C58.8315 37.0953 58.6482 37.2273 58.5382 37.4193C58.4282 37.6113 58.4038 37.8273 58.4649 38.0313C58.526 38.2353 58.6604 38.4153 58.856 38.5233C59.0515 38.6313 59.2715 38.6553 59.4793 38.5953C59.9193 38.4753 60.176 38.0313 60.0538 37.5993C59.956 37.2393 59.626 36.9993 59.2593 36.9993Z" fill="#1F6252"/>
<path d="M52.8548 53.1633C52.5248 53.1633 52.256 52.9113 52.2437 52.5873C52.2315 52.2513 52.4882 51.9753 52.8304 51.9633C52.8671 51.9633 55.886 51.8313 58.2448 50.2233C58.526 50.0313 58.9048 50.1033 59.1004 50.3793C59.296 50.6553 59.2226 51.0273 58.9415 51.2193C56.2771 53.0313 53.0137 53.1633 52.8793 53.1633C52.8671 53.1633 52.8671 53.1633 52.8548 53.1633Z" fill="#1F6252"/>
<path d="M25.2815 52.4672C25.1226 52.4672 24.9637 52.4072 24.8537 52.2872L23.0448 50.5112C22.8126 50.2712 22.8126 49.8992 23.0448 49.6592C23.2771 49.4192 23.6682 49.4192 23.9126 49.6592L25.7215 51.4353C25.9537 51.6753 25.9537 52.0472 25.7215 52.2872C25.5993 52.4072 25.4404 52.4672 25.2815 52.4672Z" fill="#1F6252"/>
<path d="M37.2837 63.2313C36.4893 63.2313 35.6826 62.9313 35.0837 62.3313L34.0448 61.3113C33.8126 61.0713 33.8126 60.6993 34.0448 60.4593C34.2771 60.2193 34.6682 60.2193 34.9126 60.4593L35.9515 61.4793C36.6848 62.1993 37.8948 62.1993 38.6282 61.4793C38.9826 61.1313 39.1782 60.6633 39.1782 60.1713C39.1782 59.9313 39.1293 59.6913 39.0437 59.4753C38.9459 59.2473 38.8115 59.0433 38.6282 58.8633C38.3959 58.6233 38.3959 58.2513 38.6282 58.0113C38.8604 57.7713 39.2515 57.7713 39.4959 58.0113L41.8182 60.2913C42.5515 61.0113 43.7615 61.0113 44.4948 60.2913C44.8493 59.9433 45.0448 59.4753 45.0448 58.9713C45.0448 58.4673 44.8493 58.0113 44.4948 57.6513C44.2504 57.4113 44.2504 57.0393 44.4948 56.7993C44.7393 56.5593 45.1182 56.5593 45.3626 56.7993C45.9493 57.3753 46.2793 58.1433 46.2793 58.9593C46.2793 59.7753 45.9615 60.5433 45.3626 61.1193C44.1526 62.3073 42.1726 62.3073 40.9626 61.1193L40.3882 60.5553C40.3026 61.2153 39.9971 61.8393 39.4959 62.3193C38.8726 62.9313 38.0782 63.2313 37.2837 63.2313Z" fill="#1F6252"/>
<path d="M47.697 59.5472C46.9026 59.5472 46.1082 59.2472 45.497 58.6472L39.8015 53.0552C39.5693 52.8152 39.5693 52.4432 39.8015 52.2032C40.0337 51.9632 40.4248 51.9632 40.6693 52.2032L46.3648 57.7952C47.0982 58.5152 48.3082 58.5152 49.0415 57.7952C49.7748 57.0752 49.7748 55.8872 49.0415 55.1672L43.3459 49.5752C43.1015 49.3352 43.1015 48.9632 43.3459 48.7232C43.5904 48.4832 43.9693 48.4832 44.2137 48.7232L49.9093 54.3152C51.1193 55.5032 51.1193 57.4472 49.9093 58.6352C49.2982 59.2592 48.4915 59.5472 47.697 59.5472Z" fill="#1F6252"/>
<path d="M50.3859 55.2393C49.5548 55.2393 48.7726 54.9273 48.1859 54.3393C47.9415 54.0993 47.9415 53.7273 48.1859 53.4873C48.4304 53.2473 48.8093 53.2473 49.0537 53.4873C49.4082 53.8353 49.8848 54.0273 50.3982 54.0273C50.9115 54.0273 51.3759 53.8353 51.7426 53.4873C52.0237 53.2113 52.2071 52.8513 52.2682 52.4673C52.2804 52.3713 52.2926 52.2753 52.2926 52.1673C52.2926 51.6753 52.0971 51.2073 51.7426 50.8473L42.6859 41.9553C42.0259 41.3073 41.0604 41.0673 40.1682 41.3073C39.7037 41.4393 39.3004 41.6793 38.9704 42.0273L36.1348 45.0513C36.1226 45.0513 36.1226 45.0633 36.1226 45.0633C34.7904 46.3713 32.6393 46.3713 31.3071 45.0633C30.2437 44.0193 29.9993 42.4353 30.7082 41.1273C31.6126 39.4593 33.1771 37.1553 35.4993 35.7273C35.5115 35.7273 35.5115 35.7153 35.5237 35.7153C37.4304 34.5393 39.5204 34.1553 41.7326 34.5393C42.0626 34.5873 46.6704 35.2833 50.2882 37.7073L54.1993 36.0513C54.5048 35.9193 54.8715 36.0633 55.006 36.3633C55.1404 36.6633 54.9937 37.0233 54.6882 37.1553L50.4593 38.9433C50.2637 39.0273 50.0315 39.0033 49.8604 38.8833C46.4015 36.4353 41.5982 35.7273 41.5493 35.7273C41.5371 35.7273 41.5371 35.7273 41.5248 35.7273C39.6059 35.3793 37.7971 35.7273 36.1593 36.7473C36.1471 36.7473 36.1471 36.7593 36.1348 36.7593C34.0571 38.0553 32.6271 40.1553 31.7959 41.6913C31.3437 42.5313 31.5026 43.5393 32.1748 44.2113C33.0182 45.0393 34.3993 45.0513 35.2548 44.2233L38.0659 41.2233C38.5426 40.7193 39.1537 40.3473 39.8259 40.1553C41.1459 39.7953 42.5759 40.1553 43.5415 41.1033L52.5982 49.9953C53.1848 50.5713 53.5148 51.3393 53.5148 52.1553C53.5148 52.3233 53.5026 52.4913 53.4782 52.6473C53.3804 53.2833 53.0748 53.8593 52.6104 54.3273C51.9993 54.9153 51.2171 55.2393 50.3859 55.2393Z" fill="#1F6252"/>
<path d="M27.3348 37.6113C27.0537 37.6113 26.8093 37.4193 26.7359 37.1433C26.6626 36.8193 26.8704 36.4953 27.2004 36.4233C31.1726 35.5353 35.6459 35.6433 35.8415 35.6553C36.1715 35.6673 36.4404 35.9313 36.4404 36.2553C36.4404 36.5913 36.1593 36.8673 35.8171 36.8553C35.6337 36.8553 31.3071 36.7353 27.4815 37.5993C27.4204 37.5993 27.3837 37.6113 27.3348 37.6113Z" fill="#1F6252"/>
<path d="M26.6993 54.8552C26.1004 54.8552 25.5382 54.6272 25.1104 54.2072C24.6826 53.7872 24.4504 53.2352 24.4504 52.6472C24.4504 52.0592 24.6826 51.5072 25.1104 51.0872L27.0415 49.1912C27.9093 48.3392 29.3393 48.3392 30.2071 49.1912C30.6349 49.6112 30.8671 50.1632 30.8671 50.7512C30.8671 51.3392 30.6349 51.8912 30.2071 52.3112C29.9749 52.5512 29.5837 52.5512 29.3393 52.3112C29.1071 52.0712 29.1071 51.6992 29.3393 51.4592C29.5349 51.2672 29.6326 51.0152 29.6326 50.7512C29.6326 50.4872 29.5226 50.2352 29.3393 50.0432C28.936 49.6472 28.3004 49.6472 27.8971 50.0432L25.966 51.9392C25.7704 52.1312 25.6726 52.3832 25.6726 52.6472C25.6726 52.9112 25.7826 53.1632 25.966 53.3552C26.1615 53.5472 26.4182 53.6432 26.6871 53.6432C26.956 53.6432 27.2126 53.5352 27.4082 53.3552C27.6404 53.1152 28.0315 53.1152 28.276 53.3552C28.5082 53.5952 28.5082 53.9672 28.276 54.2072C27.8604 54.6272 27.2982 54.8552 26.6993 54.8552Z" fill="#1F6252"/>
<path d="M28.3248 57.7952C27.7504 57.7952 27.176 57.5792 26.736 57.1472C26.3082 56.7272 26.076 56.1752 26.076 55.5872C26.076 54.9992 26.3082 54.4472 26.736 54.0272L29.3515 51.4592C30.2193 50.6072 31.6493 50.6072 32.5171 51.4592C32.9448 51.8792 33.1771 52.4312 33.1771 53.0192C33.1771 53.6072 32.9448 54.1592 32.5171 54.5792C32.2848 54.8192 31.8937 54.8192 31.6493 54.5792C31.4171 54.3392 31.4171 53.9672 31.6493 53.7272C31.8448 53.5352 31.9426 53.2832 31.9426 53.0192C31.9426 52.7552 31.8326 52.5032 31.6493 52.3112C31.246 51.9152 30.5982 51.9152 30.2071 52.3112L27.6037 54.8912C27.4082 55.0832 27.3104 55.3352 27.3104 55.5992C27.3104 55.8632 27.4204 56.1152 27.6037 56.3072C28.0071 56.7032 28.6426 56.7032 29.046 56.3072C29.2782 56.0672 29.6693 56.0672 29.9137 56.3072C30.1582 56.5472 30.146 56.9192 29.9137 57.1592C29.4737 57.5792 28.8993 57.7952 28.3248 57.7952Z" fill="#1F6252"/>
<path d="M29.8649 60.8073C29.266 60.8073 28.7037 60.5793 28.276 60.1593C27.8482 59.7393 27.616 59.1873 27.616 58.5993C27.616 58.0113 27.8482 57.4593 28.276 57.0393L31.6493 53.7273C32.5171 52.8753 33.9471 52.8753 34.8149 53.7273C35.2426 54.1473 35.4749 54.6993 35.4749 55.2873C35.4749 55.8753 35.2426 56.4273 34.8149 56.8473L31.4415 60.1593C31.026 60.5793 30.4637 60.8073 29.8649 60.8073ZM33.2504 54.2913C32.9937 54.2913 32.7249 54.3873 32.5293 54.5793L29.1437 57.8913C28.9482 58.0833 28.8504 58.3353 28.8504 58.5993C28.8504 58.8633 28.9604 59.1153 29.1437 59.3073C29.3393 59.4993 29.596 59.5953 29.8649 59.5953C30.1337 59.5953 30.3904 59.4873 30.586 59.3073L33.9593 55.9953C34.1549 55.8033 34.2526 55.5513 34.2526 55.2873C34.2526 55.0233 34.1426 54.7713 33.9593 54.5793C33.7637 54.3873 33.5071 54.2913 33.2504 54.2913Z" fill="#1F6252"/>
<path d="M33.1526 62.1032C32.5537 62.1032 31.9915 61.8752 31.5637 61.4552C31.136 61.0352 30.9037 60.4832 30.9037 59.8952C30.9037 59.3072 31.136 58.7552 31.5637 58.3352C31.796 58.0952 32.1871 58.0952 32.4315 58.3352C32.6637 58.5752 32.6637 58.9472 32.4315 59.1872C32.236 59.3792 32.1382 59.6312 32.1382 59.8952C32.1382 60.1592 32.2482 60.4112 32.4315 60.6032C32.6271 60.7952 32.8837 60.8912 33.1526 60.8912C33.4215 60.8912 33.6782 60.7832 33.8737 60.6032L36.2693 58.2512C36.6726 57.8552 36.6726 57.2312 36.2693 56.8352C35.866 56.4392 35.2304 56.4392 34.8271 56.8352C34.5949 57.0752 34.2037 57.0752 33.9593 56.8352C33.7271 56.5952 33.7271 56.2232 33.9593 55.9832C34.8271 55.1312 36.2571 55.1312 37.1249 55.9832C37.9926 56.8352 37.9926 58.2392 37.1249 59.0912L34.7293 61.4432C34.3137 61.8752 33.7515 62.1032 33.1526 62.1032Z" fill="#1F6252"/>
<path d="M47.1226 37.3233C47.0004 37.3233 46.866 37.2873 46.756 37.2033C46.4871 36.9993 46.4382 36.6273 46.6337 36.3633C48.3937 34.0953 49.3104 31.3593 49.3104 28.4913V23.3913L40.9382 20.1993L32.566 23.3913V28.4913C32.566 31.1673 33.3726 33.7353 34.9126 35.9073C35.1082 36.1833 35.0348 36.5553 34.7537 36.7473C34.4726 36.9393 34.0937 36.8673 33.8982 36.5913C32.2237 34.2153 31.3315 31.4073 31.3315 28.4913V22.9833C31.3315 22.7313 31.4904 22.5153 31.7226 22.4193L40.706 18.9873C40.8526 18.9393 41.0115 18.9393 41.146 18.9873L50.1293 22.4193C50.3615 22.5153 50.5204 22.7313 50.5204 22.9833V28.4913C50.5204 31.6353 49.506 34.5993 47.5871 37.0953C47.4893 37.2513 47.306 37.3233 47.1226 37.3233Z" fill="#1F6252"/>
<path d="M43.9815 36.2553C43.8348 36.2553 43.6882 36.2073 43.566 36.0993C43.3215 35.8713 43.2971 35.4993 43.5293 35.2473C45.2526 33.3993 46.206 30.9993 46.206 28.4913V25.4913L40.9382 23.4753L35.6704 25.4913V28.4913C35.6704 30.8793 36.5382 33.1953 38.1271 35.0073C38.3471 35.2593 38.3226 35.6433 38.066 35.8593C37.8093 36.0753 37.4182 36.0513 37.1982 35.7993C35.426 33.7713 34.4482 31.1793 34.4482 28.5033V25.0713C34.4482 24.8193 34.6071 24.6033 34.8393 24.5073L40.7182 22.2633C40.8648 22.2153 41.0237 22.2153 41.1582 22.2633L47.0371 24.5073C47.2693 24.6033 47.4282 24.8193 47.4282 25.0713V28.4913C47.4282 31.2993 46.3648 33.9873 44.4337 36.0633C44.2993 36.1953 44.1404 36.2553 43.9815 36.2553Z" fill="#1F6252"/>
<path d="M39.7404 32.4153C39.5815 32.4153 39.4226 32.3553 39.3126 32.2353L37.6137 30.5673C37.3815 30.3393 37.3815 29.9553 37.6137 29.7153C37.846 29.4873 38.2371 29.4873 38.4815 29.7153L39.7526 30.9633L43.4193 27.3633C43.6637 27.1353 44.0426 27.1353 44.2871 27.3633C44.5315 27.5913 44.5315 27.9753 44.2871 28.2153L40.1926 32.2353C40.0582 32.3553 39.8993 32.4153 39.7404 32.4153Z" fill="#1F6252"/>
</svg>
