<svg width="81" height="82" viewBox="0 0 81 82" fill="none" xmlns="http://www.w3.org/2000/svg">
<rect y="0.591309" width="81" height="81" rx="8" fill="#B1DF1E"/>
<g clip-path="url(#clip0_192_191)">
<path d="M40.5263 38.8652C39.6426 38.8652 38.9263 39.5816 38.9263 40.4653C38.9262 41.1042 39.3016 41.654 39.8431 41.9105V43.8555C39.8431 44.2328 40.1489 44.5387 40.5262 44.5387C40.9036 44.5387 41.2094 44.2329 41.2094 43.8555V41.9105C41.7509 41.654 42.1263 41.1042 42.1263 40.4653C42.1263 39.5816 41.41 38.8652 40.5263 38.8652Z" fill="#1F6252"/>
<path d="M57.5754 27.5115C54.6346 26.3478 52.3004 24.2045 51.0028 21.4765C50.6499 20.7347 49.8872 20.2552 49.0595 20.2552H31.9405C31.1129 20.2552 30.3501 20.7346 29.9973 21.4765C28.6998 24.2045 26.3655 26.3478 23.4246 27.5115C22.5997 27.8378 22.0668 28.6242 22.0668 29.5147V33.6784C22.0668 39.1364 23.6584 44.5281 26.6695 49.2707C29.7099 54.0597 34.1156 58.062 39.41 60.8447L39.4962 60.8901C39.8106 61.0552 40.1553 61.1378 40.5001 61.1378C40.8447 61.1378 41.1895 61.0552 41.5037 60.8902L41.5902 60.8447C46.8846 58.0619 51.2902 54.0597 54.3307 49.2707C57.3418 44.528 58.9334 39.1363 58.9334 33.6784V29.5147C58.9334 28.6241 58.4002 27.8378 57.5754 27.5115ZM57.5672 33.6785C57.5672 38.8766 56.0492 44.0151 53.1773 48.5385C50.2646 53.1262 46.038 56.9635 40.9548 59.6354L40.8682 59.6808C40.6377 59.8021 40.3625 59.802 40.1318 59.6808L40.0456 59.6355C34.9622 56.9636 30.7356 53.1263 27.8227 48.5385C24.9509 44.0152 23.4329 38.8766 23.4329 33.6784V29.5147C23.4329 29.1884 23.627 28.9007 23.9272 28.7819C27.1907 27.4906 29.7845 25.1046 31.2309 22.0634C31.3585 21.795 31.6371 21.6216 31.9404 21.6216H49.0596C49.3629 21.6216 49.6414 21.795 49.7691 22.0634C51.2156 25.1046 53.8095 27.4906 57.0728 28.782C57.3731 28.9008 57.5672 29.1885 57.5672 29.5148V33.6785Z" fill="#1F6252"/>
<path d="M61.0005 40.1613C60.6325 40.0781 60.2667 40.309 60.1837 40.677C58.1032 49.8811 51.7668 57.8633 42.799 62.5767L40.7151 63.6721C40.5805 63.7428 40.4198 63.7428 40.2853 63.6721L38.2013 62.5767C29.2195 57.8559 22.88 49.8599 20.8082 40.6392C20.7256 40.2712 20.36 40.0397 19.992 40.1225C19.6239 40.2052 19.3926 40.5706 19.4753 40.9387C21.6349 50.551 28.2286 58.8785 37.5657 63.786L39.6497 64.8814C39.916 65.0213 40.2081 65.0913 40.5002 65.0913C40.7922 65.0913 41.0844 65.0213 41.3507 64.8813L43.4347 63.7859C52.7571 58.8861 59.3475 50.573 61.5163 40.9782C61.5994 40.6102 61.3685 40.2445 61.0005 40.1613Z" fill="#1F6252"/>
<path d="M60.668 24.9079C57.0203 24.5231 54.1521 21.9627 53.693 18.6816C53.5662 17.7749 52.787 17.0913 51.8807 17.0913H29.1197C28.2134 17.0913 27.4342 17.7749 27.3074 18.6816C26.8482 21.9627 23.98 24.5231 20.3324 24.9079C19.4081 25.0054 18.7111 25.7862 18.7111 26.7241V34.0595C18.7111 35.1254 18.7663 36.2031 18.8752 37.2627C18.9114 37.6142 19.208 37.876 19.554 37.876C19.5773 37.876 19.6009 37.8747 19.6247 37.8723C19.9999 37.8338 20.2729 37.4982 20.2343 37.123C20.1302 36.1096 20.0773 35.0789 20.0773 34.0595V26.7241C20.0773 26.4912 20.2523 26.2901 20.4757 26.2665C24.7485 25.8158 28.1141 22.7745 28.6605 18.8709C28.694 18.6313 28.8871 18.4575 29.1197 18.4575H51.8806C52.1132 18.4575 52.3064 18.6313 52.3398 18.8709C52.886 22.7745 56.2517 25.8157 60.5245 26.2665C60.7479 26.2901 60.9229 26.4912 60.9229 26.7241V34.0595C60.9229 35.0682 60.8712 36.0882 60.7692 37.0914C60.731 37.4667 61.0044 37.8019 61.3797 37.8401C61.7548 37.8785 62.0902 37.6048 62.1285 37.2296C62.2352 36.1807 62.2892 35.1142 62.2892 34.0595V26.7241C62.2892 25.7862 61.5923 25.0054 60.668 24.9079Z" fill="#1F6252"/>
<path d="M48.3244 34.1412H47.2012V30.8804C47.2012 27.1998 44.2069 24.2056 40.5263 24.2056C36.8457 24.2056 33.8514 27.1998 33.8514 30.8804V34.1412H32.7282C31.5303 34.1412 30.5557 35.1158 30.5557 36.3138V46.0946C30.5557 47.2925 31.5303 48.2672 32.7282 48.2672H48.3244C49.5223 48.2672 50.4969 47.2925 50.4969 46.0946V36.3138C50.4969 35.1158 49.5223 34.1412 48.3244 34.1412ZM35.2177 30.8805C35.2177 27.9533 37.5991 25.5719 40.5264 25.5719C43.4536 25.5719 45.835 27.9533 45.835 30.8805V34.1413H35.2177V30.8805ZM49.1307 46.0946C49.1307 46.5392 48.7689 46.9009 48.3244 46.9009H32.7282C32.2836 46.9009 31.9219 46.5392 31.9219 46.0946V36.3138C31.9219 35.8692 32.2837 35.5074 32.7282 35.5074H48.3244C48.7689 35.5074 49.1307 35.8691 49.1307 36.3138V46.0946Z" fill="#1F6252"/>
</g>
<defs>
<clipPath id="clip0_192_191">
<rect width="48" height="48" fill="white" transform="translate(16.5 17.0913)"/>
</clipPath>
</defs>
</svg>
