<svg width="82" height="82" viewBox="0 0 82 82" fill="none" xmlns="http://www.w3.org/2000/svg">
<rect x="0.72998" y="0.591309" width="81" height="81" rx="8" fill="#B1DF1E"/>
<g clip-path="url(#clip0_4036_47)">
<path d="M59.5667 55.9382H59.4655C59.4743 54.4172 59.479 52.7861 59.4601 52.5602C59.3728 51.5134 58.231 51.0575 57.4983 51.9562C57.1389 52.3972 55.4766 55.3939 54.9757 56.3018C54.7174 56.7699 55.0566 57.3452 55.5917 57.3452H58.0489C58.0459 57.7554 58.0427 58.1488 58.0397 58.5038C58.0316 59.4373 59.4387 59.4543 59.4466 58.5159C59.4486 58.2976 59.4521 57.8724 59.456 57.3452H59.5666C59.9551 57.3452 60.2701 57.0302 60.2701 56.6417C60.2701 56.2531 59.9552 55.9382 59.5667 55.9382ZM58.0582 55.9382H56.7872C57.2617 55.0894 57.7246 54.275 58.0665 53.6913C58.0664 54.2957 58.063 55.1017 58.0582 55.9382Z" fill="#1F6252"/>
<path d="M53.3977 58.0074C53.3947 58.0074 53.3916 58.0074 53.3887 58.0075C52.7383 58.0157 52.0476 58.021 51.4807 58.0218C52.7929 56.269 53.8327 54.9435 53.8327 53.8913C53.8327 52.6102 52.7905 51.5681 51.5095 51.5681C50.4018 51.5681 49.443 52.3562 49.2299 53.4419C49.155 53.8232 49.4034 54.1929 49.7846 54.2678C50.1658 54.3426 50.5356 54.0943 50.6105 53.7131C50.6945 53.2856 51.0726 52.9752 51.5095 52.9752C52.0018 52.9752 52.4047 53.3654 52.425 53.853C52.4161 53.8788 52.4353 54.2691 51.8486 55.1071C50.8457 56.54 50.2473 57.3235 49.9259 57.7446C49.5323 58.2598 49.3528 58.4949 49.4729 58.8859C49.5434 59.1152 49.7171 59.2911 49.9494 59.3685C50.2446 59.4667 52.5076 59.4258 53.4065 59.4145C53.795 59.4096 54.106 59.0908 54.1011 58.7023C54.0961 58.3166 53.7822 58.0074 53.3977 58.0074Z" fill="#1F6252"/>
<path d="M54.5954 45.8142C49.2808 45.8142 44.9569 50.1381 44.9569 55.4528C44.9569 60.7676 49.2808 65.0914 54.5954 65.0914C59.9101 65.0914 64.234 60.7676 64.234 55.4528C64.234 50.1381 59.9101 45.8142 54.5954 45.8142ZM54.5954 63.6844C50.0565 63.6844 46.3639 59.9917 46.3639 55.4528C46.3639 50.9138 50.0565 47.2212 54.5954 47.2212C59.1344 47.2212 62.827 50.9138 62.827 55.4528C62.827 59.9916 59.1344 63.6844 54.5954 63.6844Z" fill="#1F6252"/>
<path d="M45.4472 61.8207H41.4646L39.5648 51.1021L40.4369 49.6043C41.079 49.7928 41.7824 49.627 42.2773 49.1452C42.2797 49.1429 42.282 49.1405 42.2844 49.1382L46.5367 44.8793C47.3352 45.0985 48.1098 45.399 48.8444 45.775C49.1894 45.9514 49.6136 45.816 49.7911 45.4692C49.9681 45.1232 49.8313 44.6994 49.4854 44.5224C48.5715 44.0547 47.6024 43.6916 46.6029 43.4421L44.7269 42.2919C44.1329 41.9276 43.3691 41.9334 42.7807 42.3067L42.5681 42.4416C42.1882 41.8881 42.2774 41.4302 42.3155 40.6947C42.7239 40.4316 43.1191 40.1323 43.5005 39.797C44.1282 39.2453 44.6608 38.5921 45.0846 37.8675H46.5182C48.1419 37.8675 49.4628 36.5466 49.4628 34.9229V29.4535C49.4628 28.536 48.9285 27.7256 48.1312 27.3477V23.4914C48.1312 21.7599 46.7224 20.3512 44.9909 20.3512H44.9087C44.8428 20.3512 44.7892 20.2976 44.7892 20.2317C44.7893 18.5001 43.3806 17.0913 41.6489 17.0913H33.8929C30.0589 17.0913 26.9397 20.2106 26.9397 24.0447V27.3478C26.1423 27.7257 25.6079 28.5362 25.6079 29.4536V32.2352C25.6079 33.5208 26.6538 34.5666 27.9393 34.5666H28.9078C29.1464 36.6394 30.1183 38.5326 31.64 39.8476C32.0001 40.1588 32.372 40.4382 32.7554 40.6857C32.7131 41.4073 32.8822 41.896 32.5032 42.4419L32.2901 42.3067C31.7018 41.9334 30.9378 41.9277 30.3439 42.2919L28.4686 43.4417C25.5836 44.1622 22.9834 45.8412 21.1365 48.1791C19.2596 50.5551 18.2259 53.5316 18.2259 56.5602V59.3822C18.2259 61.5026 19.9509 63.2276 22.0712 63.2276H45.4471C45.8356 63.2276 46.1506 62.9127 46.1506 62.5241C46.1507 62.1357 45.8357 61.8207 45.4472 61.8207ZM43.5344 43.4949C43.6725 43.4071 43.852 43.4058 43.9914 43.4914L45.1964 44.2302L41.2929 48.1398C41.118 48.3072 40.8469 48.3167 40.6607 48.1613C40.0409 47.6435 39.0596 46.8238 38.726 46.5452C39.9384 45.7761 42.3287 44.2597 43.5344 43.4949ZM41.3802 43.1952L37.5355 45.6342L33.6929 43.1967C34.2525 42.3559 34.15 41.5292 34.1625 41.4303C35.2291 41.8781 36.3686 42.1079 37.572 42.1164H37.577C37.5807 42.1164 37.5842 42.1164 37.5879 42.1163C38.7599 42.0981 39.8696 41.8704 40.9085 41.4364C40.9214 41.5357 40.8144 42.3372 41.3802 43.1952ZM39.2619 48.8261L38.4226 50.2675H36.6484L35.8092 48.8261L37.5356 47.384L39.2619 48.8261ZM43.0624 37.6102H41.2244C40.9123 37.6102 40.6583 37.3562 40.6583 37.044C40.6583 36.7318 40.9123 36.4779 41.2244 36.4779H43.0624C43.3745 36.4779 43.6286 36.7319 43.6286 37.044C43.6285 37.3562 43.3745 37.6102 43.0624 37.6102ZM48.0559 34.9231C48.0559 35.7709 47.3662 36.4607 46.5183 36.4607H45.7386C45.9541 35.8553 46.1026 35.2197 46.1782 34.5667H47.1315C47.4598 34.5667 47.7723 34.4984 48.0559 34.3755V34.9231ZM47.9523 29.0286C48.0187 29.1565 48.0559 29.3013 48.0559 29.4537V32.2353C48.0559 32.745 47.6413 33.1597 47.1315 33.1597H46.2317V30.3496C46.44 30.239 47.4729 30.1217 47.9523 29.0286ZM28.8392 33.1596H27.9394C27.4297 33.1596 27.015 32.7449 27.015 32.2352V29.4536C27.015 29.3013 27.0523 29.1564 27.1186 29.0285C27.5984 30.1226 28.634 30.2405 28.8392 30.3494V33.1596ZM28.8314 28.8568C28.5416 28.7559 28.3468 28.4818 28.3468 28.1748C28.3468 27.1114 28.3468 24.5918 28.3468 24.0447C28.3468 20.9863 30.8348 18.4983 33.893 18.4983H41.649C42.6048 18.4983 43.3823 19.2759 43.3823 20.2317C43.3823 21.0734 44.067 21.7582 44.9088 21.7582H44.9909C45.9467 21.7582 46.7243 22.5357 46.7243 23.4914V28.1749C46.7243 28.4818 46.5296 28.7559 46.2396 28.8568C45.8917 28.9781 45.0656 29.2658 44.7007 29.3929C44.6211 29.4207 44.5363 29.3635 44.5364 29.2756L44.5392 26.3652C44.5483 24.1902 42.5221 22.4401 39.8105 23.3116C38.3908 23.7677 36.653 23.7589 35.2605 23.3117C32.5729 22.4476 30.5226 24.1641 30.5318 26.3631L30.5352 29.2758C30.5354 29.3616 30.452 29.421 30.3709 29.3928C30.0074 29.2662 29.1788 28.9778 28.8314 28.8568ZM32.5601 38.7831C30.1706 36.7182 30.282 33.8087 30.2462 33.6296V30.7977C30.301 30.8036 30.3558 30.8066 30.4106 30.8066C31.2653 30.8066 31.9434 30.1119 31.9421 29.274L31.9387 26.3594C31.9338 25.1953 32.9861 24.0586 34.8299 24.6513C36.542 25.2012 38.5877 25.1824 40.2409 24.6512C41.967 24.0967 43.1374 25.0767 43.132 26.3618L43.1292 29.274C43.1279 30.1765 43.9101 30.896 44.8245 30.7977V33.8134C44.8023 34.4645 44.6942 35.1002 44.5083 35.7029C44.1478 35.3143 43.6329 35.0709 43.0622 35.0709H41.2243C40.1362 35.0709 39.2511 35.9561 39.2511 37.0441C39.2511 38.1321 40.1363 39.0173 41.2243 39.0173H42.2408C40.8957 40.0888 39.3347 40.6803 37.5737 40.7094C35.665 40.6941 33.9873 40.0163 32.5601 38.7831ZM31.0795 43.4914C31.219 43.4059 31.3983 43.4072 31.5365 43.4949C32.762 44.2722 35.1372 45.7791 36.3449 46.5452C34.4519 48.1257 34.4483 48.1295 34.4102 48.1613C34.2239 48.3167 33.9528 48.3073 33.7781 48.1398L29.8746 44.2302L31.0795 43.4914ZM33.6064 61.8207H26.6356V58.5189C26.6356 58.1303 26.3206 57.8154 25.9321 57.8154C25.5436 57.8154 25.2286 58.1303 25.2286 58.5189V61.8207H22.0713C20.7269 61.8207 19.633 60.7268 19.633 59.3823V56.5603C19.633 53.8468 20.5591 51.1801 22.2407 49.0513C23.8365 47.0312 26.0598 45.5603 28.5342 44.8793L32.7866 49.1382C32.7889 49.1406 32.7913 49.143 32.7937 49.1453C33.2874 49.626 33.9904 49.7933 34.6341 49.6044L35.5062 51.1022L33.6064 61.8207ZM35.0353 61.8207L36.8337 51.6746H38.2372L40.0356 61.8207H35.0353Z" fill="#1F6252"/>
</g>
<defs>
<clipPath id="clip0_4036_47">
<rect width="48" height="48" fill="white" transform="translate(17.23 17.0913)"/>
</clipPath>
</defs>
</svg>
