<svg width="82" height="82" viewBox="0 0 82 82" fill="none" xmlns="http://www.w3.org/2000/svg">
<rect x="0.927124" y="0.591309" width="81" height="81" rx="8" fill="#B1DF1E"/>
<g clip-path="url(#clip0_192_209)">
<path d="M63.5409 47.612C63.4204 47.176 63.2176 46.7717 62.9377 46.4099C62.4459 45.7754 61.7649 45.3572 61.0286 45.1765C61.0546 44.8332 61.0693 44.4843 61.0693 44.1318C61.0693 40.9237 60.0314 37.4838 58.1472 34.4459C57.9553 34.1364 57.5487 34.0413 57.2396 34.2332C56.9301 34.425 56.8349 34.8315 57.0268 35.1408C58.758 37.9319 59.7509 41.209 59.7509 44.1319C59.7509 44.4617 59.7368 44.7876 59.7119 45.1074C59.2252 45.1745 58.7476 45.345 58.3147 45.6264L49.1987 51.5438C48.3956 52.0648 47.4347 52.2617 46.4923 52.0978L39.0713 50.8056L42.9984 48.4515C44.7783 47.3851 45.3974 45.1212 44.4079 43.2974C43.5479 41.7126 41.7337 40.9381 39.9977 41.4139C39.7666 41.4768 39.5384 41.5627 39.3195 41.6696L33.7695 44.3804C33.7679 44.2976 33.7665 44.2148 33.7665 44.1317C33.7665 43.7819 33.7812 43.423 33.809 43.0604C35.6969 42.5536 37.4278 41.5594 38.847 40.14C40.9796 38.0074 42.154 35.172 42.154 32.156C42.154 31.3352 42.0663 30.5279 41.8968 29.7444C43.473 28.8533 45.1064 28.4008 46.7587 28.4008C49.8964 28.4008 53.0146 30.0618 55.539 33.0778C55.6693 33.2336 55.8563 33.314 56.0448 33.314C56.194 33.314 56.3441 33.2636 56.4675 33.1603C56.7468 32.9267 56.7837 32.5109 56.55 32.2317C55.0007 30.3806 53.2343 28.9939 51.3622 28.1284C51.9528 27.2399 52.3287 26.3123 52.4585 25.4083C52.6142 24.3244 52.4082 23.3403 51.8784 22.6374C51.3447 21.9289 50.5464 21.5993 49.6796 21.6924C49.6717 21.6181 49.6621 21.5411 49.6504 21.4619C49.5231 20.5987 49.2248 19.9106 48.7639 19.4163C48.2606 18.8766 47.5672 18.5913 46.7587 18.5913C45.9502 18.5913 45.2568 18.8766 44.7534 19.4163C44.2925 19.9105 43.9942 20.5987 43.867 21.4619C43.8554 21.541 43.8458 21.6181 43.8379 21.6923C42.9705 21.5993 42.1733 21.9291 41.6394 22.6373C41.1097 23.3403 40.9035 24.3243 41.0591 25.4083C41.1888 26.3127 41.565 27.2406 42.156 28.1295C41.9466 28.2268 41.738 28.3298 41.5305 28.4404C40.9787 26.8521 40.0711 25.3961 38.847 24.1722C36.7144 22.0396 33.8791 20.8651 30.8631 20.8651C27.8471 20.8651 25.0117 22.0396 22.879 24.1722C20.7465 26.3048 19.572 29.1401 19.572 32.1561C19.572 35.1721 20.7465 38.0075 22.8791 40.1401C25.0118 42.2727 27.8472 43.4472 30.8632 43.4472C31.4056 43.4472 31.9422 43.4086 32.47 43.3338C32.4557 43.6028 32.4482 43.8695 32.4482 44.1317C32.4482 44.4271 32.4584 44.7214 32.4768 45.0118L29.3997 46.5148C29.2397 46.5922 29.0824 46.6814 28.9342 46.7785C27.7765 47.5299 27.0554 48.7874 26.973 50.1479L26.17 50.3703C26.0858 50.1643 26.001 49.9579 25.9151 49.7512C25.8017 49.4781 25.5194 49.3139 25.2267 49.3498C23.1796 49.5992 21.253 50.2801 19.5005 51.3732C19.2495 51.5297 19.1335 51.8342 19.2167 52.118C20.3152 55.8636 21.6312 59.5872 23.128 63.1852C23.2312 63.4333 23.4729 63.5913 23.7363 63.5912C23.7628 63.5912 23.7896 63.5896 23.8164 63.5864C25.8657 63.3365 27.7921 62.6557 29.5421 61.5629C29.7928 61.4063 29.9087 61.1021 29.8256 60.8185C29.7897 60.6961 29.7528 60.5736 29.7165 60.451L32.1012 59.569L47.2222 61.4094C47.4254 61.4342 47.6291 61.4465 47.8324 61.4465C48.9861 61.4465 50.1247 61.0523 51.0291 60.3262L62.346 51.2484C62.3531 51.2431 62.3601 51.2376 62.3671 51.2321C63.4452 50.3669 63.9061 48.9466 63.5409 47.612ZM42.6922 23.4308C43.0366 22.9738 43.5752 22.8715 44.2088 23.1428C44.4201 23.2332 44.663 23.2071 44.8502 23.074C45.0374 22.941 45.1418 22.72 45.1258 22.4909C45.1249 22.4766 45.0446 21.0372 45.7175 20.3156C45.9722 20.0424 46.3128 19.9097 46.7587 19.9097C47.2033 19.9097 47.543 20.0416 47.7974 20.3129C48.3614 20.9145 48.4175 22.0903 48.3916 22.4909C48.3755 22.72 48.48 22.941 48.6672 23.074C48.8545 23.2072 49.0975 23.2332 49.3086 23.1428C49.9425 22.8715 50.4811 22.9738 50.8256 23.4308C51.432 24.2356 51.3529 25.8992 50.1038 27.6309C49.0084 27.2695 47.8866 27.0825 46.7587 27.0825C45.6287 27.0825 44.5104 27.2665 43.4129 27.6299C42.1646 25.8986 42.0858 24.2355 42.6922 23.4308ZM23.8114 39.2078C21.9277 37.3242 20.8904 34.8199 20.8904 32.1561C20.8904 29.4924 21.9278 26.9879 23.8114 25.1043C25.695 23.2207 28.1993 22.1834 30.8631 22.1834C33.5268 22.1834 36.0313 23.2207 37.9147 25.1043C39.1635 26.3532 40.0399 27.875 40.489 29.5351C40.4957 29.5748 40.5058 29.6143 40.5201 29.653C40.7279 30.4607 40.8356 31.3001 40.8356 32.156C40.8356 34.8199 39.7983 37.3242 37.9147 39.2078C36.0312 41.0914 33.5268 42.1286 30.8631 42.1286C28.1993 42.1286 25.695 41.0914 23.8114 39.2078ZM61.5595 50.1894C61.5534 50.194 61.5471 50.1988 61.5411 50.2036L50.2038 59.298C49.4154 59.931 48.3872 60.2237 47.3817 60.1007L32.1018 58.2409C31.9974 58.2283 31.8918 58.2407 31.7935 58.277L29.333 59.1872C28.8823 57.7357 28.3983 56.2845 27.887 54.8552C27.7643 54.5124 27.387 54.3341 27.0443 54.4567C26.7015 54.5793 26.523 54.9566 26.6457 55.2994C27.2825 57.0797 27.8773 58.8942 28.416 60.7006C27.0902 61.4593 25.6596 61.965 24.1507 62.2081C22.817 58.9578 21.633 55.6077 20.6264 52.236C21.9539 51.477 23.3847 50.9713 24.8922 50.7285C24.9836 50.9514 25.0735 51.1735 25.1627 51.395C25.1651 51.4014 25.1677 51.4077 25.1703 51.414C25.3642 51.8961 25.5529 52.3742 25.7335 52.8436C25.8643 53.1833 26.2459 53.3529 26.5855 53.2219C26.9253 53.0911 27.0946 52.7096 26.9638 52.3699C26.8662 52.1161 26.7657 51.8595 26.664 51.6015L27.808 51.2846C28.109 51.2012 28.3101 50.9181 28.2898 50.6065C28.2188 49.5187 28.7409 48.4757 29.6542 47.8828C29.7573 47.8152 29.8649 47.7542 29.9761 47.7004L39.898 42.8542C40.0424 42.7837 40.1922 42.7272 40.3448 42.6857C41.4886 42.3723 42.6828 42.8824 43.2492 43.9261C43.9008 45.1272 43.493 46.6181 42.3207 47.3206L36.8741 50.5857C36.6378 50.7273 36.5146 51.0009 36.5648 51.2716C36.6152 51.5424 36.8286 51.7532 37.0999 51.8005L46.2663 53.3966C47.5373 53.6174 48.8333 53.352 49.9163 52.6496L59.0326 46.7317C59.4039 46.4904 59.8197 46.3785 60.2295 46.3833C60.2297 46.3833 60.2299 46.3834 60.2302 46.3834C60.258 46.3869 60.2858 46.3886 60.3132 46.3886C60.3254 46.3886 60.3376 46.3876 60.3497 46.3869C60.9383 46.4273 61.5041 46.7121 61.8953 47.2169C62.0693 47.4419 62.1954 47.6929 62.2696 47.9614C62.4937 48.7802 62.2151 49.6521 61.5595 50.1894Z" fill="#1F6252"/>
<path d="M38.8779 46.9733C39.1976 47.4508 39.7214 47.7129 40.2612 47.7129C40.5291 47.7129 40.8009 47.6483 41.0536 47.5135L41.8707 47.0778C42.192 46.9065 42.3134 46.5072 42.1421 46.1859C41.9709 45.8647 41.5717 45.7431 41.2504 45.9145L40.4333 46.3503C40.2736 46.4354 40.0719 46.3867 39.9733 46.2398C39.4258 45.4221 39.2543 44.5876 39.2514 44.5732C39.182 44.2167 38.8358 43.9836 38.4803 44.0519C38.1227 44.1206 37.8885 44.466 37.9571 44.8235C37.9655 44.8679 38.1734 45.9215 38.8779 46.9733Z" fill="#1F6252"/>
<path d="M26.2111 59.5443C26.1012 59.2846 25.8361 59.1186 25.5537 59.1392C25.2779 59.1593 25.0421 59.355 24.9676 59.6205C24.8072 60.1921 25.4562 60.6649 25.9548 60.3528C26.2215 60.1858 26.3335 59.835 26.2111 59.5443Z" fill="#1F6252"/>
<path d="M28.523 38.4536C28.4379 38.4536 28.3515 38.4371 28.2682 38.4021C27.9325 38.2612 27.7746 37.8748 27.9154 37.5392L32.7515 26.0155C32.8925 25.6798 33.2789 25.522 33.6144 25.6628C33.9501 25.8037 34.108 26.1901 33.9672 26.5258L29.1311 38.0493C29.0251 38.3016 28.7804 38.4536 28.523 38.4536Z" fill="#1F6252"/>
<path d="M27.5973 31.359C26.0556 31.359 24.8013 29.9493 24.8013 28.2167C24.8013 26.4841 26.0556 25.0745 27.5973 25.0745C29.139 25.0745 30.3934 26.4841 30.3934 28.2167C30.3934 29.9493 29.139 31.359 27.5973 31.359ZM27.5973 26.3927C26.7825 26.3927 26.1196 27.211 26.1196 28.2166C26.1196 29.2223 26.7826 30.0405 27.5973 30.0405C28.4121 30.0405 29.075 29.2223 29.075 28.2166C29.075 27.211 28.4122 26.3927 27.5973 26.3927Z" fill="#1F6252"/>
<path d="M34.1288 39.2379C32.5871 39.2379 31.3328 37.8282 31.3328 36.0956C31.3328 34.3629 32.5871 32.9532 34.1288 32.9532C35.6706 32.9532 36.9249 34.3629 36.9249 36.0956C36.9248 37.8282 35.6705 39.2379 34.1288 39.2379ZM34.1288 34.2716C33.314 34.2716 32.6511 35.0899 32.6511 36.0956C32.6511 37.1013 33.314 37.9195 34.1288 37.9195C34.9437 37.9195 35.6065 37.1012 35.6065 36.0956C35.6064 35.0898 34.9436 34.2716 34.1288 34.2716Z" fill="#1F6252"/>
<path d="M52.4417 39.575C52.1544 39.4735 51.8897 39.3762 51.6451 39.2824V35.247C52.3805 35.3755 52.8215 35.755 52.8538 35.7837C53.1216 36.027 53.5359 36.009 53.7816 35.7426C54.0285 35.475 54.0116 35.058 53.744 34.8112C53.6989 34.7696 52.9189 34.0676 51.6451 33.9148V33.0241C51.6451 32.66 51.35 32.3649 50.9859 32.3649C50.6217 32.3649 50.3267 32.66 50.3267 33.0241V33.9672C50.1772 33.9964 50.0243 34.0333 49.8672 34.0806C48.7762 34.4092 47.9607 35.3445 47.7388 36.5213C47.5375 37.5899 47.8767 38.618 48.6242 39.2043C49.049 39.5375 49.583 39.8424 50.3266 40.168V45.1855C49.6047 45.1523 49.1524 45.0122 48.371 44.5011C48.0662 44.3018 47.658 44.3872 47.4585 44.6919C47.2592 44.9965 47.3446 45.4052 47.6493 45.6044C48.6893 46.2847 49.3867 46.4654 50.3266 46.5039V47.4986C50.3266 47.8626 50.6217 48.1577 50.9858 48.1577C51.3499 48.1577 51.645 47.8626 51.645 47.4986V46.4566C53.4379 46.1577 54.4842 44.7032 54.7124 43.3459C54.9986 41.644 54.1073 40.1637 52.4417 39.575ZM49.4379 38.167C49.0792 37.8857 48.9246 37.3487 49.0344 36.7656C49.1365 36.2237 49.5088 35.5655 50.2474 35.343C50.2741 35.3349 50.3002 35.3282 50.3266 35.3209V38.7121C49.9598 38.5274 49.6698 38.3489 49.4379 38.167ZM53.4123 43.1274C53.2737 43.9521 52.6719 44.8317 51.6451 45.1069V40.6897C51.7608 40.7319 51.8791 40.7745 52.0023 40.8181C53.5773 41.3748 53.4798 42.7264 53.4123 43.1274Z" fill="#1F6252"/>
</g>
<defs>
<clipPath id="clip0_192_209">
<rect width="45" height="45" fill="white" transform="translate(18.9271 18.5913)"/>
</clipPath>
</defs>
</svg>
