<svg width="150" height="67" viewBox="0 0 150 67" fill="none" xmlns="http://www.w3.org/2000/svg">
<g clip-path="url(#clip0_4026_42)">
<path d="M73.5091 43.9245L69.0451 35.8218H67.7915V43.9245H62.563V22.4602H71.3382C73.0301 22.4602 74.4671 22.7558 75.6495 23.347C76.8521 23.9381 77.749 24.7535 78.3401 25.793C78.9312 26.8122 79.2269 27.9537 79.2269 29.2175C79.2269 30.6443 78.8191 31.9183 78.0037 33.0395C77.2087 34.1606 76.0265 34.9556 74.457 35.4245L79.4102 43.9245H73.5091ZM67.7915 32.1222H71.0325C71.9905 32.1222 72.704 31.8878 73.1727 31.419C73.662 30.9501 73.9066 30.2877 73.9066 29.4316C73.9066 28.6162 73.662 27.9741 73.1727 27.5052C72.704 27.0365 71.9905 26.8021 71.0325 26.8021H67.7915V32.1222Z" fill="black"/>
<path d="M81.4692 35.3633C81.4692 33.6103 81.7954 32.0713 82.4476 30.7464C83.1204 29.4214 84.0274 28.4023 85.1689 27.6888C86.3104 26.9754 87.5844 26.6187 88.9909 26.6187C90.1935 26.6187 91.2432 26.8633 92.1402 27.3524C93.0575 27.8417 93.7607 28.4838 94.2499 29.2788V26.8633H99.4784V43.9245H94.2499V41.509C93.7404 42.304 93.0269 42.9462 92.1096 43.4353C91.2127 43.9245 90.163 44.1692 88.9602 44.1692C87.5742 44.1692 86.3104 43.8124 85.1689 43.099C84.0274 42.3651 83.1204 41.3358 82.4476 40.0109C81.7954 38.6655 81.4692 37.1163 81.4692 35.3633ZM94.2499 35.3939C94.2499 34.0893 93.883 33.0599 93.1492 32.3058C92.4357 31.5515 91.5592 31.1744 90.5196 31.1744C89.4801 31.1744 88.5934 31.5515 87.8596 32.3058C87.1461 33.0395 86.7894 34.0588 86.7894 35.3633C86.7894 36.6679 87.1461 37.7075 87.8596 38.482C88.5934 39.2363 89.4801 39.6134 90.5196 39.6134C91.5592 39.6134 92.4357 39.2363 93.1492 38.482C93.883 37.7279 94.2499 36.6984 94.2499 35.3939Z" fill="black"/>
<path d="M108.49 29.2788C108.999 28.4838 109.702 27.8417 110.599 27.3524C111.496 26.8633 112.546 26.6187 113.749 26.6187C115.155 26.6187 116.429 26.9754 117.571 27.6888C118.712 28.4023 119.609 29.4214 120.261 30.7464C120.934 32.0713 121.27 33.6103 121.27 35.3633C121.27 37.1163 120.934 38.6655 120.261 40.0109C119.609 41.3358 118.712 42.3651 117.571 43.099C116.429 43.8124 115.155 44.1692 113.749 44.1692C112.566 44.1692 111.517 43.9245 110.599 43.4353C109.702 42.9462 108.999 42.3143 108.49 41.5397V52.0578H103.261V26.8633H108.49V29.2788ZM115.95 35.3633C115.95 34.0588 115.583 33.0395 114.849 32.3058C114.136 31.5515 113.249 31.1744 112.189 31.1744C111.15 31.1744 110.263 31.5515 109.529 32.3058C108.816 33.0599 108.459 34.0893 108.459 35.3939C108.459 36.6984 108.816 37.7279 109.529 38.482C110.263 39.2363 111.15 39.6134 112.189 39.6134C113.229 39.6134 114.116 39.2363 114.849 38.482C115.583 37.7075 115.95 36.6679 115.95 35.3633Z" fill="black"/>
<path d="M126.643 25.0899C125.725 25.0899 124.971 24.8249 124.38 24.2949C123.809 23.7445 123.524 23.0717 123.524 22.2769C123.524 21.4615 123.809 20.7889 124.38 20.2589C124.971 19.7085 125.725 19.4332 126.643 19.4332C127.54 19.4332 128.274 19.7085 128.844 20.2589C129.435 20.7889 129.731 21.4615 129.731 22.2769C129.731 23.0717 129.435 23.7445 128.844 24.2949C128.274 24.8249 127.54 25.0899 126.643 25.0899ZM129.241 26.8632V43.9245H124.013V26.8632H129.241Z" fill="black"/>
<path d="M131.991 35.3632C131.991 33.6102 132.317 32.0712 132.97 30.7463C133.642 29.4213 134.549 28.4022 135.691 27.6887C136.832 26.9753 138.106 26.6186 139.512 26.6186C140.634 26.6186 141.652 26.853 142.57 27.3218C143.507 27.7906 144.241 28.4226 144.771 29.2175V21.2983H150V43.9245H144.771V41.4785C144.282 42.2937 143.579 42.9461 142.662 43.4352C141.765 43.9245 140.715 44.1691 139.512 44.1691C138.106 44.1691 136.832 43.8123 135.691 43.099C134.549 42.3651 133.642 41.3357 132.97 40.0108C132.317 38.6655 131.991 37.1162 131.991 35.3632ZM144.771 35.3938C144.771 34.0892 144.405 33.0598 143.671 32.3057C142.957 31.5515 142.081 31.1743 141.041 31.1743C140.001 31.1743 139.115 31.5515 138.381 32.3057C137.667 33.0395 137.311 34.0587 137.311 35.3632C137.311 36.6678 137.667 37.7075 138.381 38.482C139.115 39.2362 140.001 39.6133 141.041 39.6133C142.081 39.6133 142.957 39.2362 143.671 38.482C144.405 37.7278 144.771 36.6983 144.771 35.3938Z" fill="black"/>
<g style="mix-blend-mode:multiply" opacity="0.09">
<path d="M52.6663 37.7561C52.7951 36.9735 52.0319 36.4207 51.2223 36.7096L38.3333 41.3131C37.4422 41.6317 37.1691 42.711 37.8536 43.208L38.9108 43.9745C39.4386 44.3566 39.2764 45.1787 38.6132 45.4862C37.2466 45.8833 35.8917 46.1906 34.5506 46.3641C34.2151 46.4096 33.8802 46.4451 33.5462 46.4768L33.2964 46.4982L33.0469 46.517C32.9641 46.5242 32.8804 46.5283 32.7981 46.5337C32.7154 46.5382 32.6323 46.5447 32.5494 46.5477L32.3019 46.5587L32.0549 46.567C31.9728 46.5696 31.8908 46.5722 31.8083 46.5732C31.7261 46.5751 31.6438 46.577 31.5621 46.5768C31.4806 46.5776 31.3981 46.5786 31.3162 46.5777C31.2344 46.5776 31.1527 46.5776 31.0708 46.5767C30.9078 46.5746 30.7447 46.5717 30.5829 46.5666C29.9332 46.547 29.2911 46.5013 28.6566 46.4312L28.4194 46.4038L28.1829 46.3745L27.9468 46.3432C27.8683 46.3325 27.7902 46.319 27.7118 46.3082L27.4777 46.2728L27.4191 46.2637L27.3612 46.2536L27.2446 46.2336C27.0892 46.2062 26.9337 46.1825 26.7801 46.1502C26.1638 46.034 25.5574 45.8936 24.9616 45.7323C24.3659 45.572 23.7812 45.3878 23.2091 45.1831C22.6371 44.9792 22.0773 44.7531 21.5317 44.5085C21.4639 44.4776 21.3947 44.4481 21.3277 44.4161L20.9233 44.2252L20.7243 44.1252C20.4571 43.9955 20.1971 43.8556 19.9387 43.7142C18.9079 43.1445 17.9404 42.4971 17.0547 41.7766C15.2807 40.3366 13.8283 38.6012 12.8451 36.638C12.7213 36.3922 12.6049 36.1443 12.4971 35.8918C12.3884 35.6397 12.2867 35.3846 12.1939 35.1257C12.0993 34.8675 12.0138 34.6063 11.9353 34.3421C11.9157 34.2761 11.8961 34.2101 11.8773 34.1437L11.8497 34.0441L11.8335 33.9841L11.8214 33.9332L11.72 33.5363L11.6717 33.3252L11.6457 33.2163C11.6369 33.1751 11.6332 33.1516 11.6271 33.1217L11.5826 32.9025L11.5627 32.8022L11.5545 32.7678L11.5522 32.7501L11.5474 32.7216L11.5098 32.5107L11.4918 32.4107L11.4734 32.2968L11.4557 32.1817L11.4394 32.0847L11.4342 32.0626C11.4342 32.0547 11.4327 32.0481 11.4321 32.0377L11.4247 31.982L11.4091 31.8716C11.3995 31.7988 11.3882 31.7267 11.3798 31.6546L11.3558 31.4395L11.334 31.25C11.3325 31.2355 11.3307 31.2158 11.3284 31.1981L11.3241 31.1431L11.3147 31.0343C11.3026 30.8893 11.2891 30.7431 11.2803 30.5998L11.2761 30.5456C11.2748 30.5276 11.2736 30.5103 11.2727 30.4903L11.2674 30.3741L11.2563 30.1558C11.2537 30.0881 11.2523 30.0207 11.2498 29.945C11.2477 29.8708 11.2436 29.7965 11.2437 29.7233L11.2418 29.307L11.2457 29.0743L11.2508 28.8545C11.2548 28.7081 11.2609 28.562 11.2689 28.416C11.283 28.1238 11.3071 27.8331 11.3354 27.5436C11.3425 27.471 11.3506 27.399 11.3585 27.3261L11.3848 27.1015L11.4149 26.8766L11.4309 26.7598L11.4388 26.6993L11.4459 26.6513L11.4605 26.5536L11.5035 26.2806L11.5133 26.2238C11.5393 26.0715 11.566 25.9223 11.5945 25.7763L11.6371 25.559L11.6592 25.4517L11.6705 25.3972L11.6843 25.3366L11.7328 25.1156L11.7833 24.8983C11.8184 24.752 11.8559 24.6031 11.8955 24.4508L11.9103 24.3943L11.9223 24.3466L11.9529 24.2341L11.9842 24.1206L12.0103 24.0218L12.0165 23.9987L12.0196 23.9872C12.0196 23.9872 12.0216 23.9796 12.0232 23.9738L12.041 23.9137L12.0757 23.7982L12.142 23.5743L12.2131 23.3498C12.2349 23.278 12.2566 23.2096 12.2807 23.1396L12.3546 22.9187C12.3785 22.8435 12.4059 22.7707 12.432 22.6966L12.5127 22.4717L12.5487 22.3735L12.5682 22.3207L12.5897 22.264L12.6327 22.1502L12.6542 22.0935L12.6761 22.0382L12.7637 21.8182L12.9398 21.3895L12.9804 21.2906L13.0289 21.1796L13.1256 20.9605C13.1903 20.8153 13.2546 20.673 13.3204 20.5328L13.3704 20.4285L13.4261 20.3143L13.4541 20.2563L13.4671 20.2295L13.4773 20.207L13.4874 20.1843L13.4986 20.1616C13.5066 20.146 13.5131 20.1325 13.5234 20.1107L13.7457 19.6756C13.7794 19.6087 13.8158 19.5411 13.8504 19.4741C13.8843 19.4081 13.9244 19.3357 13.9642 19.2653L14.0818 19.0527C14.1213 18.9815 14.1598 18.9106 14.2003 18.8398L14.2608 18.734C14.2806 18.6988 14.3004 18.6636 14.3218 18.627L14.4504 18.411L14.5033 18.3188C14.5074 18.3115 14.5131 18.3026 14.5186 18.293L14.5363 18.2655L14.5708 18.21L14.7012 17.9977C14.7438 17.9273 14.7897 17.8585 14.8333 17.7886L14.9626 17.5838L15.0962 17.3812C15.1421 17.3125 15.1864 17.2415 15.2346 17.1737L15.3743 16.9682L15.4419 16.8681L15.5109 16.77L15.6566 16.5646L15.7259 16.4673L15.8007 16.3648C15.9004 16.2282 16.0008 16.0941 16.0997 15.9621C16.1502 15.8963 16.1998 15.8307 16.2496 15.766L16.3246 15.6687L16.4038 15.5683L16.5608 15.37C16.6133 15.3043 16.6651 15.2398 16.7187 15.1747C16.8249 15.045 16.9323 14.9156 17.0407 14.7868C17.1492 14.6581 17.2607 14.5301 17.3724 14.403C17.4851 14.2755 17.5978 14.1481 17.7117 14.022L17.7981 13.9273L17.8871 13.8311L18.0591 13.6465C18.1147 13.586 18.1756 13.5231 18.2344 13.4598L18.3241 13.3661L18.4148 13.2736C18.4752 13.2126 18.5369 13.1493 18.5956 13.0888C18.6539 13.0276 18.7149 12.969 18.7762 12.9077L18.9621 12.7241L19.1512 12.5421C19.2163 12.4804 19.2736 12.423 19.3363 12.3639L19.5283 12.1854L19.6262 12.0942C19.6573 12.0652 19.6892 12.0359 19.7202 12.0069L19.9138 11.8313C20.1741 11.5964 20.4402 11.3658 20.7096 11.1368C20.8448 11.0226 20.9811 10.908 21.1173 10.7943C21.2536 10.6798 21.3923 10.568 21.5307 10.4546C20.7754 10.8128 20.0322 11.205 19.3072 11.633C19.1278 11.7416 18.9449 11.8478 18.7676 11.961L18.5002 12.1287L18.2347 12.301L18.1016 12.3873L17.9708 12.4755L17.7086 12.653L17.4493 12.8348C17.3626 12.8953 17.2759 12.9566 17.1916 13.0188C16.5072 13.5151 15.8436 14.0411 15.2081 14.5996C14.8888 14.8766 14.5798 15.1645 14.2728 15.4562L14.0464 15.678L13.9328 15.7891L13.8216 15.902L13.5991 16.1278L13.3803 16.357L13.2714 16.4717L13.1641 16.5887L12.9501 16.8216L12.7399 17.0586L12.6351 17.1775C12.5996 17.2166 12.5664 17.2568 12.5323 17.2973L12.3269 17.5381C12.2585 17.6183 12.1924 17.7005 12.1251 17.7813C11.9895 17.9432 11.8607 18.1091 11.7297 18.2738C11.6639 18.3568 11.6021 18.4403 11.5373 18.5238C11.4737 18.6078 11.4087 18.6905 11.3473 18.7756L11.1607 19.0298L11.1137 19.0937L11.0687 19.158L10.9777 19.2866C10.7343 19.6288 10.5032 19.978 10.2767 20.33C10.1663 20.5077 10.0536 20.6836 9.94756 20.8635C9.89402 20.9532 9.83937 21.0423 9.78693 21.1326L9.63069 21.4038C9.60447 21.4488 9.57826 21.494 9.55313 21.5397L9.47777 21.6766L9.32704 21.9505L9.18272 22.2268L9.11047 22.3646L9.04041 22.5033L8.90139 22.7816L8.76679 23.0618L8.70004 23.2023C8.67803 23.2487 8.65731 23.2966 8.63549 23.3438L8.50729 23.6266C8.34168 24.0053 8.18137 24.3861 8.03569 24.7711C7.88691 25.1552 7.75276 25.5436 7.62481 25.9336L7.53229 26.2272C7.51668 26.2761 7.50108 26.325 7.48658 26.3743L7.44287 26.5217L7.35727 26.8157L7.27789 27.1115C7.06583 27.8998 6.90343 28.6965 6.77986 29.4968C6.76289 29.5972 6.75064 29.697 6.73659 29.7972L6.69624 30.0975L6.66262 30.3973L6.64591 30.5477L6.63211 30.6981L6.60541 30.9986C6.59717 31.0987 6.59076 31.1985 6.58453 31.299C6.56898 31.4991 6.56126 31.6995 6.55172 31.9003C6.54639 32.0006 6.54489 32.1005 6.54249 32.2006L6.53618 32.5008L6.53551 32.8002L6.53516 32.95L6.53773 33.0996L6.54468 33.3983C6.54701 33.498 6.55314 33.5972 6.55747 33.697L6.56476 33.8461C6.56682 33.8956 6.56908 33.946 6.57296 33.9948L6.59318 34.2921C6.59726 34.342 6.59932 34.3915 6.60429 34.4408L6.61812 34.5888L6.64598 34.8855L6.68037 35.181C6.69213 35.2793 6.70189 35.3775 6.71677 35.4767C6.76953 35.8738 6.83627 36.2683 6.91568 36.659C7.07491 37.4417 7.28634 38.211 7.54882 38.9616C7.81039 39.7126 8.12281 40.4442 8.48017 41.1521C8.83844 41.8598 9.24206 42.5454 9.68673 43.2033C10.5772 44.5197 11.6322 45.7303 12.8164 46.8181C14.0016 47.9054 15.3148 48.873 16.7294 49.7103C18.1439 50.5478 19.6601 51.256 21.2559 51.8257C22.8519 52.3956 24.5276 52.8262 26.2631 53.1036C27.9986 53.3809 29.7957 53.5046 31.6273 53.4547C33.4581 53.4051 35.3244 53.1825 37.1862 52.7686C39.0363 52.3592 40.8768 51.7707 42.6639 51.0069C43.5999 50.6074 44.5206 50.1592 45.4198 49.6665C45.8802 49.4141 46.4264 49.4288 46.8049 49.7027L48.6878 51.0683C49.3724 51.5653 50.4682 51.081 50.6104 50.2202L52.6611 37.7586L52.6663 37.7561Z" fill="#434858"/>
</g>
<path d="M38.9392 45.8203C37.5549 46.2213 36.1824 46.5317 34.8241 46.707C34.4842 46.7528 34.1449 46.7888 33.8076 46.8206L33.5546 46.8422L33.3019 46.8611C33.2179 46.8685 33.1341 46.8722 33.0497 46.878C32.9661 46.8826 32.8819 46.8892 32.7979 46.8922L32.5473 46.9032L32.2971 46.9116C32.2139 46.9142 32.1308 46.917 32.0473 46.918C31.9639 46.9198 31.8807 46.9217 31.7978 46.9216C31.7152 46.9223 31.6317 46.9233 31.5487 46.9225C31.4659 46.9223 31.3833 46.9231 31.3002 46.9213C31.1351 46.9193 30.9698 46.9163 30.8059 46.9112C30.1479 46.8915 29.4973 46.8453 28.8547 46.7746L28.6146 46.7468L28.3749 46.7172L28.1356 46.6848C28.0562 46.674 27.9772 46.6611 27.8976 46.6493L27.6604 46.6136L27.6011 46.6045L27.5424 46.5942L27.4243 46.5741C27.2669 46.5465 27.1094 46.5225 26.9538 46.4898C26.3296 46.3725 25.7153 46.2307 25.1118 46.0678C24.5084 45.9057 23.9161 45.7198 23.3366 45.5131C22.7572 45.3071 22.1902 45.0787 21.6384 44.8313C21.5698 44.8001 21.4997 44.7703 21.4318 44.7381L21.2274 44.6416L21.0231 44.545L20.8216 44.444C20.5508 44.313 20.2874 44.1716 20.0257 44.0288C18.9817 43.4535 18.0017 42.7995 17.1047 42.0726C15.3077 40.6182 13.8368 38.8662 12.8406 36.8825C12.7153 36.6342 12.5973 36.3838 12.4882 36.1288C12.3781 35.8742 12.2751 35.6165 12.1811 35.355C12.0853 35.0941 11.9986 34.8305 11.9191 34.5636C11.8993 34.4968 11.8794 34.4302 11.8604 34.3632L11.8324 34.2626L11.816 34.202L11.8037 34.1506L11.701 33.7497L11.6521 33.5365L11.6256 33.4256C11.6176 33.3837 11.6129 33.3602 11.6067 33.3302L11.5615 33.1078L11.5413 33.0066L11.533 32.9718L11.5306 32.9538L11.5258 32.9252L11.4877 32.7121L11.4695 32.6111L11.4508 32.4961L11.4329 32.3798L11.4174 32.2816L11.4139 32.2587C11.4121 32.2512 11.4105 32.2446 11.41 32.2341L11.4024 32.1778L11.3877 32.0668C11.3781 31.9935 11.3666 31.9206 11.358 31.8477L11.3337 31.6303L11.3117 31.4391C11.3101 31.4245 11.3083 31.4046 11.3069 31.3863L11.3026 31.3308L11.2931 31.2208C11.2808 31.0745 11.2671 30.9267 11.2582 30.782L11.254 30.7273C11.2526 30.7091 11.2514 30.6917 11.2505 30.6716L11.2451 30.5541L11.2339 30.3337C11.2313 30.2652 11.2298 30.1972 11.2273 30.1206C11.2252 30.0457 11.221 29.9706 11.2211 29.8968L11.2183 29.4765L11.2223 29.2415L11.2274 29.0196C11.2315 28.8716 11.2385 28.7237 11.2457 28.5766C11.26 28.2816 11.2844 27.9878 11.3131 27.6955C11.3203 27.6221 11.3285 27.5493 11.3365 27.4758L11.3631 27.249L11.3938 27.0226L11.41 26.9047L11.418 26.8436L11.4252 26.7951L11.44 26.6963L11.4579 26.5815L11.4751 26.4677L11.4826 26.421L11.4926 26.3636C11.5189 26.2097 11.546 26.0591 11.5748 25.9116L11.6179 25.692L11.6404 25.5837L11.6518 25.5286L11.6658 25.4675L11.7149 25.2442L11.766 25.0248C11.8016 24.877 11.8396 24.7266 11.8797 24.5728L11.8947 24.5157L11.9068 24.4675L11.9378 24.354L11.9696 24.2392L11.996 24.1395L12.0022 24.1162L12.0054 24.1046C12.0054 24.1046 12.0075 24.0968 12.009 24.091L12.0273 24.0311L12.0623 23.9136L12.1294 23.6875L12.2014 23.4607C12.2246 23.3887 12.2454 23.3191 12.2697 23.2476L12.3445 23.0245C12.3688 22.9485 12.3965 22.875 12.423 22.8002L12.5047 22.5731L12.5411 22.4738L12.5609 22.4206L12.5827 22.3631L12.6262 22.2483L12.6479 22.191L12.6701 22.1352L12.7589 21.913L12.9373 21.48L12.9786 21.3801L13.0276 21.268L13.1254 21.0466C13.1909 20.9001 13.2562 20.7563 13.3231 20.6156L13.3738 20.5101L13.4299 20.3948L13.4584 20.3363L13.4716 20.3091L13.4819 20.2863L13.4922 20.2636L13.5036 20.2406C13.5116 20.2247 13.5182 20.2111 13.5287 20.1892L13.7538 19.7496C13.7879 19.6822 13.8248 19.6138 13.8599 19.5461C13.8941 19.4786 13.9349 19.4065 13.9751 19.3353L14.0943 19.1206C14.1342 19.0486 14.1733 18.977 14.2146 18.9065L14.2757 18.7995C14.2958 18.7638 14.3159 18.7283 14.3386 18.6911L14.4687 18.473L14.5223 18.3798C14.5264 18.3723 14.5321 18.3627 14.5387 18.3535L14.5558 18.326L14.5907 18.2698L14.7228 18.0556C14.7659 17.9845 14.8123 17.9148 14.8566 17.8443L14.9876 17.6375L15.1229 17.4328C15.1693 17.3633 15.2146 17.2925 15.2631 17.2232L15.4057 17.0163L15.4742 16.9151L15.5442 16.8161L15.6918 16.6093L15.7621 16.5112L15.8378 16.4077C15.9391 16.2705 16.0396 16.1345 16.1407 16.0008C16.1909 15.9347 16.2421 15.8681 16.2924 15.8027L16.3684 15.7045L16.4487 15.6032L16.6078 15.4027C16.6609 15.3365 16.7134 15.2713 16.7677 15.2056C16.8753 15.0745 16.9839 14.9438 17.0938 14.8138C17.2037 14.6837 17.3158 14.5548 17.4298 14.4261C17.5431 14.2976 17.6572 14.169 17.7736 14.0413L17.8611 13.9457L17.9512 13.8485L18.1253 13.662C18.1817 13.601 18.2434 13.5373 18.3031 13.4736L18.3937 13.3787L18.4857 13.2853C18.5468 13.2237 18.6094 13.1598 18.6688 13.0988C18.7279 13.0368 18.7897 12.9777 18.8517 12.9158L19.0399 12.7303L19.2316 12.5465C19.2976 12.4843 19.3556 12.4262 19.4192 12.3665L19.6136 12.1862L19.7128 12.0941C19.7442 12.0648 19.7766 12.0352 19.8081 12.0059L20.0042 11.8287C20.2677 11.5914 20.5373 11.3585 20.8102 11.1272C20.9472 11.0118 21.0851 10.8961 21.2234 10.7821C21.3613 10.6664 21.5018 10.5535 21.6418 10.4381C20.8613 10.8589 19.7877 11.4879 18.5971 12.3612C11.3212 17.697 9.15373 25.1902 8.55507 27.3826C8.55507 27.3826 6.78271 33.8688 8.49427 37.9687C8.69486 38.4495 8.93277 38.9133 8.93277 38.9133C9.08948 39.2228 9.25478 39.5271 9.43049 39.8253C9.60713 40.1233 9.79031 40.4158 9.98593 40.7026C10.3752 41.2758 10.7991 41.8215 11.2552 42.3403C11.4835 42.5992 11.7185 42.8525 11.9623 43.0976C12.0834 43.2208 12.2078 43.3413 12.3319 43.461L12.5212 43.6387L12.7128 43.8138C13.2273 44.2763 13.7693 44.7097 14.3342 45.1148C15.4648 45.9247 16.6884 46.6123 17.9761 47.1806C19.2662 47.7463 20.6194 48.193 22.0154 48.5135C23.4114 48.834 24.8507 49.0255 26.3076 49.0853C26.4892 49.0947 26.6722 49.0976 26.8544 49.1015L26.9911 49.1043L27.0593 49.1053H27.1283L27.4031 49.1045C27.7687 49.1048 28.1354 49.0932 28.5016 49.0747C29.2354 49.0363 29.9691 48.9642 30.6999 48.8557C31.4309 48.748 32.1582 48.6032 32.8777 48.4226C33.2373 48.3315 33.5946 48.2348 33.9478 48.1252C34.3014 48.0173 34.6527 47.8995 35.0009 47.7736C35.0881 47.7421 35.1752 47.7107 35.2607 47.677C35.3474 47.644 35.4332 47.6111 35.5197 47.5771C35.6919 47.5103 35.8632 47.4395 36.0332 47.3672C36.2029 47.2941 36.3716 47.2203 36.5393 47.1426C36.7061 47.0651 36.8726 46.9867 37.0372 46.9046C37.3667 46.7411 37.6906 46.5703 38.0088 46.389C38.3264 46.2087 38.6376 46.018 38.9418 45.8187L38.9392 45.8203Z" fill="url(#paint0_linear_4026_42)"/>
<path d="M37.7861 43.9481L38.8433 44.7146C39.3712 45.0967 39.209 45.9188 38.5458 46.2265C37.7922 46.5752 36.936 46.9217 35.9838 47.2295C35.4427 47.404 33.9007 47.8856 31.8551 48.1402C30.4492 48.3153 29.024 48.3602 27.6115 48.2788C24.7847 48.1167 22.0053 47.447 19.4906 46.3122C18.2338 45.7451 17.0416 45.0611 15.9453 44.2653C14.8492 43.4697 13.848 42.5626 12.9748 41.5515C12.5382 41.0458 12.1325 40.5148 11.7639 39.96C11.3951 39.4042 11.0626 38.825 10.7697 38.2245C10.4767 37.6232 10.2234 37.0008 10.0132 36.3596C9.90783 36.0396 9.81379 35.7142 9.72953 35.385C9.70731 35.304 9.68973 35.218 9.66983 35.1343L9.60992 34.8828L9.55817 34.6288L9.53174 34.5016C9.52269 34.4596 9.51547 34.417 9.50823 34.3743L9.46101 34.1188C9.45287 34.0765 9.44564 34.0338 9.43931 33.991L9.41832 33.8621C9.40476 33.7765 9.38918 33.6907 9.37743 33.6046L9.34198 33.3456C9.33656 33.3023 9.33023 33.2595 9.32481 33.2162L9.31036 33.0861L9.28034 32.8253L9.25687 32.5635C9.24873 32.4762 9.24061 32.389 9.23519 32.301C9.22367 32.126 9.21103 31.9503 9.20493 31.7736C9.20153 31.6858 9.19702 31.5975 9.19453 31.5093L9.18954 31.2435L9.18706 31.1105L9.18749 30.9775L9.18814 30.7107L9.19443 30.443C9.19666 30.3543 9.19868 30.2648 9.20363 30.1753C9.23572 29.4606 9.30341 28.74 9.41788 28.0198L9.46054 27.7497L9.50992 27.4791L9.53417 27.344C9.54201 27.2993 9.55257 27.2538 9.56132 27.2088L9.61652 26.9383C9.69506 26.5777 9.77851 26.2175 9.87781 25.8583C9.97291 25.498 10.0832 25.1398 10.1983 24.782L10.2883 24.5146C10.3038 24.4693 10.3177 24.4255 10.3343 24.3807L10.3822 24.247L10.4782 23.9805L10.5803 23.7146L10.6313 23.5817L10.6855 23.4496L10.7927 23.1848L10.9059 22.9208L10.962 22.789C10.9808 22.7453 11.0016 22.702 11.0213 22.658L11.1396 22.395C11.1801 22.3076 11.2217 22.2208 11.2632 22.134C11.3442 21.9592 11.4326 21.7873 11.5187 21.6136C11.6954 21.2692 11.8782 20.9255 12.0737 20.5866L12.1465 20.4592L12.183 20.396L12.2206 20.3332L12.3715 20.0805C12.4204 19.9957 12.4746 19.9128 12.5257 19.8292C12.5778 19.7461 12.6288 19.6616 12.683 19.5787C12.7913 19.4131 12.8967 19.2466 13.0095 19.083C13.065 19.0015 13.1201 18.9183 13.1767 18.8373L13.3483 18.594C13.3775 18.5532 13.4047 18.5122 13.4341 18.4722L13.5221 18.3516L13.699 18.11L13.8805 17.8713L13.9716 17.7515L14.0651 17.6336L14.252 17.3968L14.4436 17.1638L14.5392 17.047L14.6373 16.932L14.8336 16.702C15.0998 16.3983 15.3691 16.0955 15.6513 15.8017C16.2112 15.2113 16.8051 14.6456 17.4253 14.1051C17.5023 14.0362 17.5811 13.9703 17.6596 13.9037L17.8961 13.7043L18.1363 13.5081L18.2561 13.4102L18.3782 13.3141L18.6223 13.122L18.8703 12.934C19.0347 12.8072 19.2037 12.6877 19.3718 12.5641C20.0472 12.0794 20.7483 11.6246 21.4692 11.1997C20.714 11.5579 19.9707 11.9501 19.2457 12.3781C19.0663 12.4867 18.8835 12.5928 18.7061 12.7061L18.4377 12.8741L18.1723 13.0465L18.0392 13.1327L17.9085 13.221L17.6462 13.3985L17.387 13.5802C17.3002 13.6407 17.2135 13.7011 17.1292 13.7643C16.4448 14.2606 15.7811 14.7865 15.1463 15.3438C14.8271 15.621 14.5173 15.9091 14.2112 16.2006L13.9848 16.4223L13.8712 16.5333L13.76 16.6463L13.5375 16.8721L13.3186 17.1012L13.2097 17.2161L13.1025 17.3331L12.8885 17.566L12.6783 17.8028L12.5733 17.9217C12.538 17.961 12.5047 18.0012 12.4706 18.0417L12.2652 18.2825C12.1968 18.3627 12.1317 18.4446 12.0634 18.5256C11.9278 18.6875 11.799 18.8533 11.6681 19.0182C11.6022 19.1012 11.5404 19.1846 11.4756 19.2681C11.412 19.3522 11.347 19.4348 11.2856 19.52L11.099 19.7742L11.052 19.8381L11.007 19.9022L10.916 20.0308C10.6724 20.3723 10.4415 20.7222 10.215 21.0743C10.1044 21.2512 9.99094 21.4282 9.88586 21.6078C9.83232 21.6976 9.77767 21.7867 9.72522 21.877L9.56899 22.1481C9.54277 22.1932 9.51654 22.2383 9.49142 22.284L9.41606 22.421L9.26533 22.6948L9.12011 22.9715L9.04786 23.1092L8.97779 23.248L8.83788 23.5265L8.70328 23.8068L8.63652 23.9472C8.61451 23.9937 8.59378 24.0415 8.57197 24.0887L8.44378 24.3715C8.27816 24.7503 8.11784 25.1311 7.97217 25.516C7.82338 25.9001 7.68923 26.2886 7.56128 26.6786L7.46877 26.9722C7.45316 27.0211 7.43756 27.0698 7.42306 27.1192L7.38026 27.2663L7.29466 27.5605L7.21527 27.8561C7.00341 28.6453 6.84081 29.4411 6.71723 30.2416C6.70027 30.3418 6.68802 30.4416 6.67397 30.5418L6.63362 30.8421L6.59909 31.1423L6.58238 31.2927L6.56857 31.4431L6.54097 31.7437C6.53274 31.844 6.52632 31.9437 6.52011 32.0441C6.50454 32.2443 6.49682 32.4447 6.48819 32.6453C6.48287 32.7456 6.48137 32.8455 6.47897 32.9456L6.47266 33.2458L6.47307 33.5457L6.47273 33.6955L6.47531 33.8451L6.48226 34.1438C6.48458 34.2435 6.49072 34.3427 6.49504 34.4426L6.50233 34.5916C6.50439 34.6411 6.50666 34.6915 6.51053 34.7403L6.53076 35.0376C6.53482 35.0875 6.53689 35.137 6.54187 35.1865L6.55569 35.3343L6.58356 35.631L6.61794 35.9265C6.62971 36.0248 6.63947 36.123 6.65434 36.2222C6.70711 36.6193 6.77384 37.0138 6.85326 37.4045C7.01248 38.1872 7.22392 38.9565 7.48621 39.7063C7.74777 40.4573 8.05928 41.1892 8.41756 41.8968C8.77603 42.6053 9.17944 43.2902 9.62503 43.9478C10.5157 45.265 11.5705 46.4748 12.7547 47.5625C13.94 48.65 15.253 49.6166 16.6677 50.4548C18.0823 51.2923 19.5983 52.0005 21.1943 52.5702C22.7903 53.1401 24.466 53.5707 26.2015 53.8481C27.937 54.1255 29.7341 54.2491 31.5648 54.1995C33.3956 54.1498 35.262 53.9272 37.1237 53.5133C38.9738 53.104 40.8143 52.5155 42.6015 51.7517C43.5375 51.3523 44.4581 50.904 45.3582 50.411C45.8186 50.1586 46.365 50.1733 46.7426 50.4475L48.6253 51.8131C49.31 52.3102 50.406 51.8266 50.5481 50.965L52.5986 38.5033C52.7276 37.7215 51.9643 37.168 51.1547 37.4568L38.2656 42.0603C37.3745 42.379 37.1013 43.4582 37.7858 43.9552L37.7861 43.9481Z" fill="#1B1B1B"/>
<path fill-rule="evenodd" clip-rule="evenodd" d="M50.6923 28.4873C44.5532 32.599 40.4307 37.1773 37.9751 42.1434C38.3893 36.9635 40.2862 31.8356 43.9835 26.7701L50.6923 28.4873Z" fill="#1B1B1B"/>
<path fill-rule="evenodd" clip-rule="evenodd" d="M42.6609 25.2839C39.7356 29.2916 36.4304 36.6656 36.6308 41.7921C34.298 36.2626 33.8714 29.7986 36.121 23.6098C36.5495 22.1835 37.0899 20.7404 37.7475 19.2758L47.376 19.8315C45.5607 21.6408 43.9933 23.4571 42.6609 25.2839Z" fill="#1B1B1B"/>
<path fill-rule="evenodd" clip-rule="evenodd" d="M36.6489 46.3509C29.7082 47.302 21.7433 44.0723 18.2479 40.0559C14.8583 36.6662 12.7448 31.7072 13.0827 25.8515C13.2803 22.4278 15.0197 18.588 15.6653 17.4582L38.8064 12.7797C31.1714 25.4455 31.6414 36.39 37.4176 46.2069C37.2946 46.1895 37.1079 46.288 36.6489 46.3509Z" fill="#1B1B1B"/>
</g>
<defs>
<linearGradient id="paint0_linear_4026_42" x1="16.5299" y1="12.0241" x2="28.2766" y2="49.885" gradientUnits="userSpaceOnUse">
<stop stop-color="#F1F1F1"/>
<stop offset="1" stop-color="#EDEDED"/>
</linearGradient>
<clipPath id="clip0_4026_42">
<rect width="150" height="66.25" fill="white"/>
</clipPath>
</defs>
</svg>
