<svg width="160" height="42" viewBox="0 0 160 42" fill="none" xmlns="http://www.w3.org/2000/svg">
<path d="M16.8009 5.50319C16.8009 6.92839 17.3383 8.22713 18.2287 9.19921C18.292 9.27034 18.3552 9.3362 18.4211 9.39943C19.4142 10.3926 20.7841 11.0038 22.3015 11.0038C23.8189 11.0038 25.1545 10.4058 26.1424 9.43368C26.2372 9.34674 26.3294 9.24927 26.4137 9.14916C27.4043 8.17971 28.761 7.58698 30.2546 7.58698C31.7483 7.58698 33.1024 8.17971 34.0929 9.14916C34.1878 9.24136 34.2773 9.33357 34.3643 9.43368C35.3574 10.4058 36.7115 11.0038 38.2104 11.0038C41.2452 11.0038 43.711 8.54062 43.711 5.50319C43.711 2.46577 41.2479 0 38.2104 0C36.6904 0 35.3153 0.619076 34.3195 1.61223C34.2615 1.67546 34.2036 1.73341 34.143 1.79137C33.1498 2.78979 31.7747 3.4036 30.2546 3.4036C28.7346 3.4036 27.3568 2.78979 26.3637 1.79137C26.3057 1.73341 26.2478 1.67546 26.1872 1.61223C25.194 0.619076 23.8162 0 22.2988 0C20.7814 0 19.4037 0.619076 18.4105 1.61223C18.3473 1.67809 18.2893 1.74131 18.2261 1.79927C17.341 2.77135 16.7983 4.07537 16.7983 5.50319H16.8009Z" fill="white"/>
<path d="M0.889352 20.5744C0.889352 21.9996 1.42676 23.2984 2.31718 24.2704C2.3804 24.3416 2.44363 24.4074 2.50949 24.4707C3.50265 25.4638 4.87252 26.075 6.38992 26.075C7.90732 26.075 9.24294 25.477 10.2308 24.5049C10.3257 24.418 10.4179 24.3205 10.5022 24.2204C11.4927 23.2509 12.8494 22.6582 14.3431 22.6582C15.8368 22.6582 17.1908 23.2509 18.1814 24.2204C18.2762 24.3126 18.3658 24.4048 18.4527 24.5049C19.5223 25.5534 21.008 26.1646 22.644 26.0644C25.3943 25.8958 27.6387 23.6356 27.7889 20.8853C27.9628 17.7056 25.4364 15.0712 22.2989 15.0712C20.7788 15.0712 19.4037 15.6903 18.4079 16.6835C18.35 16.7467 18.292 16.8046 18.2314 16.8626C17.2383 17.861 15.8631 18.4748 14.3431 18.4748C12.823 18.4748 11.4453 17.861 10.4521 16.8626C10.3942 16.8046 10.3362 16.7467 10.2756 16.6835C9.28246 15.6903 7.90468 15.0712 6.38728 15.0712C4.86989 15.0712 3.49211 15.6903 2.49895 16.6835C2.43573 16.7493 2.37777 16.8126 2.31455 16.8705C1.4294 17.8426 0.886719 19.1466 0.886719 20.5744H0.889352Z" fill="white"/>
<path d="M0.886719 5.51119C0.886719 8.54598 3.34722 11.0118 6.38728 11.0118C7.90732 11.0118 9.28246 10.3979 10.2756 9.39952C10.3388 9.3363 10.4021 9.27307 10.46 9.20721C11.3504 8.23513 11.8878 6.93638 11.8878 5.51119C11.8878 4.086 11.3452 2.77672 10.4521 1.79936C10.3942 1.74141 10.3362 1.68345 10.2756 1.62023C9.28246 0.627071 7.90732 0.00799561 6.38728 0.00799561C3.34722 0.00799561 0.886719 2.47113 0.886719 5.51119Z" fill="white"/>
<path d="M0.886719 35.643C0.886719 38.6778 3.34722 41.1436 6.38728 41.1436C7.90732 41.1436 9.28246 40.5298 10.2756 39.5313C10.3388 39.4681 10.4021 39.4049 10.46 39.339C11.3504 38.367 11.8878 37.0682 11.8878 35.643C11.8878 34.2178 11.3452 32.9086 10.4521 31.9312C10.3942 31.8732 10.3362 31.8153 10.2756 31.7521C9.28246 30.7589 7.90732 30.1398 6.38728 30.1398C3.34722 30.1398 0.886719 32.603 0.886719 35.643Z" fill="white"/>
<path d="M16.6323 34.9976C16.253 38.3222 18.8426 41.1436 22.096 41.1436C23.616 41.1436 24.9912 40.5298 25.9843 39.5314C26.0476 39.4682 26.1108 39.4049 26.1687 39.3391C27.0592 38.367 27.5966 37.0683 27.5966 35.6431C27.5966 34.2179 27.0539 32.9086 26.1608 31.9312C26.1029 31.8733 26.0449 31.8153 25.9843 31.7521C24.8384 30.6061 23.1866 29.9607 21.39 30.1846C18.9084 30.4929 16.9168 32.5134 16.6323 34.9976Z" fill="#B1DF1E"/>
<path d="M32.5466 34.9976C32.1672 38.3222 34.7568 41.1436 38.0102 41.1436C39.5303 41.1436 40.9054 40.5298 41.8986 39.5314C41.9618 39.4682 42.025 39.4049 42.083 39.3391C42.9734 38.367 43.5108 37.0683 43.5108 35.6431C43.5108 34.2179 42.9681 32.9086 42.0751 31.9312C42.0171 31.8733 41.9592 31.8153 41.8986 31.7521C40.7526 30.6061 39.1009 29.9607 37.3042 30.1846C34.8227 30.4929 32.8311 32.5134 32.5466 34.9976Z" fill="#B1DF1E"/>
<path d="M32.5466 19.9264C32.1672 23.251 34.7568 26.0724 38.0102 26.0724C39.5303 26.0724 40.9054 25.4586 41.8986 24.4602C41.9618 24.3969 42.025 24.3337 42.083 24.2678C42.9734 23.2958 43.5108 21.997 43.5108 20.5718C43.5108 19.1466 42.9681 17.8374 42.0751 16.86C42.0171 16.802 41.9592 16.7441 41.8986 16.6809C40.7526 15.5349 39.1009 14.8895 37.3042 15.1134C34.8227 15.4216 32.8311 17.4422 32.5466 19.9264Z" fill="#B1DF1E"/>
<path d="M67.3677 13.1323H56.4508V18.3852H65.9346V22.2683H56.4508V31.4991H51.5167V9.02795H67.3677V13.1349V13.1323Z" fill="white"/>
<path d="M73.2081 31.4965H68.7533V9.02533H73.2081V31.4965Z" fill="white"/>
<path d="M91.1297 31.4965H86.8646V29.2046C86.4194 29.8105 86.1955 30.095 85.911 30.3505C85.2418 30.988 83.9062 31.9733 81.6459 31.9733C80.7555 31.9733 77.5389 31.7494 76.4272 28.6645C76.0769 27.645 76.0453 26.5965 76.0453 25.5138V15.2029H80.4684V24.2098C80.5 25.4506 80.4368 25.8958 80.6264 26.5333C80.8504 27.2024 81.4852 28.2193 83.2371 28.2193C83.5875 28.2193 84.5411 28.1877 85.3683 27.5186C86.7382 26.4358 86.7039 24.8447 86.7382 23.2851V15.2003H91.1297V31.4965Z" fill="white"/>
<path d="M105.202 20.8984C105.171 20.7087 105.139 20.4532 104.979 20.1028C104.47 18.7672 103.195 18.0981 101.828 18.0981C99.8547 18.0981 97.7551 19.3705 97.7551 23.4458C97.7551 24.115 97.7551 28.5381 101.765 28.5381C103.833 28.5381 105.073 27.2341 105.361 25.2609H109.689C109.465 26.7889 109.02 28.0929 108.003 29.3021C105.837 31.8811 102.847 31.9759 101.733 31.9759C99.7599 31.9759 97.9764 31.5623 96.3852 30.3532C95.1761 29.4311 93.2345 27.3921 93.2345 23.5091C93.2345 22.969 93.2978 21.2804 93.9353 19.6892C94.6676 17.8741 96.7356 14.7234 101.765 14.7234C106.825 14.7551 108.83 17.6529 109.373 19.6892C109.468 20.008 109.531 20.2609 109.597 20.8984H105.205H105.202Z" fill="white"/>
<path d="M121.09 19.9421C121.027 19.4969 120.964 19.1466 120.708 18.733C120.295 18.1271 119.531 17.7135 118.066 17.7135C118.066 17.7135 115.487 17.587 115.487 19.3362C115.487 19.655 115.613 20.2583 116.314 20.577C116.696 20.7667 117.523 20.9906 118.511 21.2145C121.694 21.8521 123.316 22.234 124.526 23.38C125.448 24.2072 125.83 25.2267 125.83 26.4359C125.83 27.5502 125.511 28.6013 124.842 29.4601C123.822 30.83 121.947 31.9733 118.348 31.9733C117.679 31.9733 113.511 32.0681 111.601 29.2046C110.806 27.9954 110.743 26.6914 110.711 26.2119H114.976C115.102 27.0391 115.263 27.4211 115.484 27.7715C115.898 28.3432 116.854 28.9174 118.445 28.9174C118.701 28.9174 119.655 28.9174 120.419 28.4722C121.246 28.027 121.438 27.2947 121.438 26.8811C121.438 26.7546 121.406 26.5307 121.28 26.2435C121.024 25.7035 120.516 25.448 119.976 25.2899C118.098 24.684 116.251 24.4943 114.407 23.8884C113.548 23.6013 111.064 22.7109 111.064 19.7498C111.096 17.7451 112.115 16.694 112.687 16.2487C114.691 14.6576 117.46 14.7208 118.066 14.7208C118.448 14.7208 122.331 14.626 124.178 16.8204C124.655 17.4263 125.166 18.2851 125.292 19.9395H121.09V19.9421Z" fill="white"/>
<path d="M142.85 31.4965H138.585V29.2046C138.14 29.8105 137.916 30.095 137.632 30.3505C136.962 30.988 135.627 31.9733 133.367 31.9733C132.476 31.9733 129.26 31.7494 128.148 28.6645C127.797 27.645 127.766 26.5965 127.766 25.5138V15.2029H132.189V24.2098C132.221 25.4506 132.157 25.8958 132.347 26.5333C132.571 27.2024 133.206 28.2193 134.958 28.2193C135.308 28.2193 136.262 28.1877 137.089 27.5186C138.459 26.4358 138.424 24.8447 138.459 23.2851V15.2003H142.85V31.4965Z" fill="white"/>
<path d="M155.261 19.9421C155.198 19.4969 155.134 19.1466 154.879 18.733C154.465 18.1271 153.701 17.7135 152.237 17.7135C152.237 17.7135 149.657 17.587 149.657 19.3362C149.657 19.655 149.784 20.2583 150.485 20.577C150.867 20.7667 151.694 20.9906 152.682 21.2145C155.864 21.8521 157.487 22.234 158.696 23.38C159.618 24.2072 160 25.2267 160 26.4359C160 27.5502 159.681 28.6013 159.012 29.4601C157.993 30.83 156.117 31.9733 152.518 31.9733C151.849 31.9733 147.682 32.0681 145.772 29.2046C144.976 27.9954 144.913 26.6914 144.881 26.2119H149.146C149.273 27.0391 149.434 27.4211 149.655 27.7715C150.068 28.3432 151.025 28.9174 152.616 28.9174C152.871 28.9174 153.825 28.9174 154.589 28.4722C155.416 28.027 155.609 27.2947 155.609 26.8811C155.609 26.7546 155.577 26.5307 155.45 26.2435C155.195 25.7035 154.686 25.448 154.146 25.2899C152.268 24.684 150.421 24.4943 148.577 23.8884C147.719 23.6013 145.234 22.7109 145.234 19.7498C145.266 17.7451 146.285 16.694 146.857 16.2487C148.862 14.6576 151.631 14.7208 152.237 14.7208C152.619 14.7208 156.502 14.626 158.348 16.8204C158.825 17.4263 159.336 18.2851 159.463 19.9395H155.261V19.9421Z" fill="white"/>
</svg>
