<svg width="226" height="58" viewBox="0 0 226 58" fill="none" xmlns="http://www.w3.org/2000/svg">
<g clip-path="url(#clip0_192_145)">
<path d="M22.6041 7.75784C22.6041 9.76694 23.3674 11.5978 24.6321 12.9681C24.7219 13.0684 24.8117 13.1612 24.9053 13.2504C26.3159 14.6504 28.2617 15.512 30.4169 15.512C32.5722 15.512 34.4693 14.669 35.8724 13.2986C36.0072 13.1761 36.1381 13.0387 36.2579 12.8976C37.6648 11.5309 39.5918 10.6954 41.7134 10.6954C43.835 10.6954 45.7582 11.5309 47.1652 12.8976C47.2999 13.0275 47.4271 13.1575 47.5506 13.2986C48.9612 14.669 50.8845 15.512 53.0136 15.512C57.3241 15.512 60.8264 12.0397 60.8264 7.75784C60.8264 3.47599 57.3278 0 53.0136 0C50.8545 0 48.9013 0.872711 47.4869 2.27276C47.4046 2.36189 47.3223 2.44359 47.2362 2.52529C45.8256 3.93277 43.8724 4.79805 41.7134 4.79805C39.5544 4.79805 37.5974 3.93277 36.1868 2.52529C36.1044 2.44359 36.0221 2.36189 35.9361 2.27276C34.5254 0.872711 32.5685 0 30.4132 0C28.2579 0 26.301 0.872711 24.8903 2.27276C24.8005 2.3656 24.7182 2.45473 24.6284 2.53643C23.3711 3.90677 22.6003 5.74504 22.6003 7.75784H22.6041Z" fill="#1C1999"/>
<path d="M0 29.0037C0 31.0128 0.763324 32.8436 2.02805 34.214C2.11785 34.3142 2.20765 34.4071 2.3012 34.4962C3.71185 35.8963 5.65758 36.7578 7.81284 36.7578C9.96811 36.7578 11.8652 35.9148 13.2684 34.5445C13.4031 34.4219 13.534 34.2845 13.6538 34.1434C15.0607 32.7768 16.9877 31.9412 19.1093 31.9412C21.2309 31.9412 23.1542 32.7768 24.5611 34.1434C24.6958 34.2734 24.823 34.4034 24.9465 34.5445C26.4656 36.0225 28.576 36.8841 30.8996 36.743C34.8061 36.5053 37.9941 33.319 38.2074 29.4419C38.4543 24.9595 34.8659 21.2458 30.4095 21.2458C28.2505 21.2458 26.2973 22.1186 24.8829 23.5186C24.8005 23.6077 24.7182 23.6894 24.6322 23.7711C23.2215 25.1786 21.2683 26.0439 19.1093 26.0439C16.9503 26.0439 14.9933 25.1786 13.5827 23.7711C13.5004 23.6894 13.418 23.6077 13.332 23.5186C11.9213 22.1186 9.96437 21.2458 7.8091 21.2458C5.65384 21.2458 3.69688 22.1186 2.28623 23.5186C2.19643 23.6115 2.11411 23.7006 2.0243 23.7823C0.774549 25.1526 0 26.9909 0 29.0037Z" fill="#1C1999"/>
<path d="M0 7.76907C0 12.0472 3.49483 15.5232 7.81284 15.5232C9.97185 15.5232 11.9251 14.6579 13.3357 13.2504C13.4255 13.1613 13.5153 13.0722 13.5976 12.9793C14.8624 11.609 15.6257 9.77817 15.6257 7.76907C15.6257 5.75998 14.8549 3.91429 13.5864 2.53652C13.5041 2.45482 13.4218 2.37312 13.3357 2.28399C11.9213 0.883941 9.97185 0.0112305 7.81284 0.0112305C3.49483 0.0112305 0 3.48351 0 7.76907Z" fill="#1C1999"/>
<path d="M0 50.2459C0 54.524 3.49483 58 7.81284 58C9.97185 58 11.9251 57.1347 13.3357 55.7272C13.4255 55.6381 13.5153 55.549 13.5976 55.4561C14.8624 54.0858 15.6257 52.255 15.6257 50.2459C15.6257 48.2368 14.8549 46.3911 13.5864 45.0133C13.5041 44.9316 13.4218 44.8499 13.3357 44.7608C11.9251 43.3607 9.97185 42.488 7.81284 42.488C3.49483 42.488 0 45.9603 0 50.2459Z" fill="#1C1999"/>
<path d="M22.3647 49.336C21.8258 54.0227 25.504 58 30.1251 58C32.2841 58 34.2373 57.1347 35.648 55.7272C35.7378 55.6381 35.8276 55.549 35.9099 55.4561C37.1746 54.0858 37.938 52.255 37.938 50.2459C37.938 48.2368 37.1672 46.3911 35.8987 45.0133C35.8164 44.9316 35.734 44.8499 35.648 44.7608C34.0203 43.1453 31.6742 42.2355 29.1223 42.5512C25.5976 42.9857 22.7688 45.834 22.3647 49.336Z" fill="#B1DF1E"/>
<path d="M44.965 49.336C44.4262 54.0227 48.1044 58 52.7255 58C54.8845 58 56.8377 57.1347 58.2483 55.7272C58.3381 55.6381 58.4279 55.549 58.5103 55.4561C59.775 54.0858 60.5383 52.255 60.5383 50.2459C60.5383 48.2368 59.7675 46.3911 58.499 45.0133C58.4167 44.9316 58.3344 44.8499 58.2483 44.7608C56.6207 43.1453 54.2746 42.2355 51.7227 42.5512C48.1979 42.9857 45.3691 45.834 44.965 49.336Z" fill="#B1DF1E"/>
<path d="M44.965 28.0902C44.4262 32.7768 48.1044 36.7541 52.7255 36.7541C54.8845 36.7541 56.8377 35.8889 58.2483 34.4814C58.3381 34.3923 58.4279 34.3031 58.5103 34.2103C59.775 32.8399 60.5383 31.0091 60.5383 29C60.5383 26.9909 59.7675 25.1452 58.499 23.7675C58.4167 23.6858 58.3344 23.6041 58.2483 23.5149C56.6207 21.8995 54.2746 20.9896 51.7227 21.3053C48.1979 21.7398 45.3691 24.5882 44.965 28.0902Z" fill="#B1DF1E"/>
<path d="M94.4276 18.5125H78.9217V25.9175H92.3921V31.3915H78.9217V44.4042H71.9133V12.7229H94.4276V18.5125Z" fill="#1C1999"/>
<path d="M102.723 44.4005H96.3959V12.7229H102.723V44.4005Z" fill="#1C1999"/>
<path d="M128.179 44.4005H122.121V41.1696C121.488 42.0237 121.17 42.4248 120.766 42.785C119.816 43.6837 117.919 45.0726 114.708 45.0726C113.443 45.0726 108.875 44.757 107.296 40.4083C106.798 38.9711 106.753 37.493 106.753 35.9667V21.4314H113.036V34.1285C113.08 35.8776 112.991 36.5052 113.26 37.4039C113.578 38.3472 114.48 39.7807 116.968 39.7807C117.466 39.7807 118.82 39.7361 119.995 38.7928C121.941 37.2665 121.892 35.0235 121.941 32.825V21.4277H128.179V44.4005Z" fill="#1C1999"/>
<path d="M148.163 29.4604C148.119 29.1931 148.074 28.8328 147.845 28.3389C147.123 26.4561 145.312 25.5128 143.37 25.5128C140.568 25.5128 137.585 27.3065 137.585 33.0516C137.585 33.9948 137.585 40.2301 143.28 40.2301C146.218 40.2301 147.98 38.3918 148.388 35.6103H154.536C154.218 37.7642 153.585 39.6025 152.141 41.307C149.065 44.9427 144.818 45.0764 143.235 45.0764C140.433 45.0764 137.9 44.4934 135.64 42.7888C133.922 41.489 131.164 38.6146 131.164 33.1407C131.164 32.3794 131.254 29.9989 132.16 27.7559C133.2 25.1972 136.137 20.7556 143.28 20.7556C150.468 20.8002 153.316 24.8852 154.087 27.7559C154.221 28.2052 154.311 28.5617 154.405 29.4604H148.167H148.163Z" fill="#1C1999"/>
<path d="M170.73 28.1123C170.64 27.4847 170.551 26.9908 170.188 26.4077C169.6 25.5536 168.515 24.9705 166.435 24.9705C166.435 24.9705 162.771 24.7923 162.771 27.2582C162.771 27.7075 162.951 28.5579 163.946 29.0073C164.489 29.2747 165.664 29.5903 167.067 29.906C171.587 30.8047 173.892 31.3432 175.609 32.9586C176.919 34.1247 177.462 35.5619 177.462 37.2665C177.462 38.8374 177.009 40.3191 176.058 41.5298C174.61 43.4609 171.946 45.0726 166.835 45.0726C165.885 45.0726 159.965 45.2063 157.252 41.1695C156.122 39.465 156.032 37.6267 155.987 36.9508H162.045C162.225 38.1169 162.453 38.6554 162.768 39.1493C163.355 39.9552 164.713 40.7648 166.973 40.7648C167.336 40.7648 168.691 40.7648 169.776 40.1371C170.951 39.5095 171.224 38.4771 171.224 37.8941C171.224 37.7158 171.179 37.4002 171 36.9954C170.637 36.2341 169.914 35.8739 169.147 35.651C166.479 34.7969 163.856 34.5295 161.237 33.6754C160.017 33.2706 156.489 32.0154 156.489 27.8412C156.534 25.0151 157.982 23.5334 158.794 22.9057C161.641 20.6627 165.574 20.7518 166.435 20.7518C166.977 20.7518 172.492 20.6181 175.115 23.7116C175.793 24.5658 176.519 25.7764 176.698 28.1086H170.73V28.1123Z" fill="#1C1999"/>
<path d="M201.641 44.4005H195.583V41.1696C194.951 42.0237 194.633 42.4248 194.229 42.785C193.278 43.6837 191.381 45.0726 188.171 45.0726C186.906 45.0726 182.337 44.757 180.758 40.4083C180.26 38.9711 180.216 37.493 180.216 35.9667V21.4314H186.498V34.1285C186.543 35.8776 186.453 36.5052 186.722 37.4039C187.041 38.3472 187.942 39.7807 190.431 39.7807C190.928 39.7807 192.283 39.7361 193.458 38.7928C195.403 37.2665 195.355 35.0235 195.403 32.825V21.4277H201.641V44.4005Z" fill="#1C1999"/>
<path d="M219.265 28.1123C219.175 27.4847 219.085 26.9908 218.722 26.4077C218.135 25.5536 217.05 24.9705 214.969 24.9705C214.969 24.9705 211.306 24.7923 211.306 27.2582C211.306 27.7075 211.486 28.5579 212.481 29.0073C213.023 29.2747 214.198 29.5903 215.602 29.906C220.122 30.8047 222.427 31.3432 224.144 32.9586C225.454 34.1247 225.996 35.5619 225.996 37.2665C225.996 38.8374 225.543 40.3191 224.593 41.5298C223.145 43.4609 220.481 45.0726 215.37 45.0726C214.419 45.0726 208.5 45.2063 205.787 41.1695C204.657 39.465 204.567 37.6267 204.522 36.9508H210.58C210.76 38.1169 210.988 38.6554 211.302 39.1493C211.89 39.9552 213.248 40.7648 215.508 40.7648C215.871 40.7648 217.226 40.7648 218.311 40.1371C219.486 39.5095 219.759 38.4771 219.759 37.8941C219.759 37.7158 219.714 37.4002 219.534 36.9954C219.171 36.2341 218.449 35.8739 217.682 35.651C215.014 34.7969 212.391 34.5295 209.772 33.6754C208.552 33.2706 205.024 32.0154 205.024 27.8412C205.068 25.0151 206.517 23.5334 207.328 22.9057C210.176 20.6627 214.109 20.7518 214.969 20.7518C215.512 20.7518 221.027 20.6181 223.65 23.7116C224.327 24.5658 225.053 25.7764 225.233 28.1086H219.265V28.1123Z" fill="#1C1999"/>
</g>
<defs>
<clipPath id="clip0_192_145">
<rect width="226" height="58" fill="white"/>
</clipPath>
</defs>
</svg>
