<svg width="53" height="53" viewBox="0 0 53 53" fill="none" xmlns="http://www.w3.org/2000/svg">
<g clip-path="url(#clip0_192_180)">
<path d="M26.7216 38.2739C25.9284 38.2739 25.2856 38.9168 25.2856 39.7099V48.0231L22.5639 45.6431C21.9667 45.1219 21.0604 45.1825 20.5381 45.7785C20.0159 46.3756 20.0764 47.2825 20.6736 47.8048L25.7759 52.2676C26.0484 52.5054 26.385 52.6225 26.7204 52.6225H26.7216C27.057 52.6225 27.3941 52.5054 27.6661 52.2671L32.7661 47.8042C33.3633 47.2819 33.4233 46.3751 32.901 45.7785C32.3799 45.1814 31.4724 45.1219 30.8753 45.6436L28.1564 48.0225V39.7094C28.1576 38.9168 27.5147 38.2739 26.7216 38.2739Z" fill="#1C1999"/>
<path d="M38.9959 26.9207V10.4676C38.9959 5.42699 34.8953 1.32642 29.8553 1.32642H23.5867C18.5456 1.32642 14.4445 5.42699 14.4445 10.4676V26.9207C14.4445 31.9613 18.5456 36.0624 23.5867 36.0624H29.8553C34.8953 36.0624 38.9959 31.9613 38.9959 26.9207ZM36.1239 26.9207C36.1239 30.3784 33.3119 33.191 29.8547 33.191H23.5867C20.129 33.191 17.3159 30.3784 17.3159 26.9207V10.4676C17.3159 7.01042 20.129 4.19784 23.5867 4.19784H29.8553C33.3125 4.19784 36.1245 7.01042 36.1245 10.4676L36.1239 26.9207Z" fill="#1C1999"/>
<path d="M26.7216 9.46875C25.9285 9.46875 25.2856 10.1116 25.2856 10.9048V15.171C25.2856 15.9642 25.9285 16.607 26.7216 16.607C27.5148 16.607 28.1576 15.9642 28.1576 15.171V10.9048C28.1576 10.1116 27.5148 9.46875 26.7216 9.46875Z" fill="#1C1999"/>
</g>
<defs>
<clipPath id="clip0_192_180">
<rect width="52" height="52" fill="white" transform="translate(0.912476 0.98291)"/>
</clipPath>
</defs>
</svg>
