<svg width="409" height="53" viewBox="0 0 409 53" fill="none" xmlns="http://www.w3.org/2000/svg">
<rect x="9.47711" y="11.3594" width="399.36" height="29.4812" rx="14.7406" fill="#4E4CC0"/>
<g filter="url(#filter0_d_4087_43)">
<rect x="18.6746" y="18.0996" width="332.269" height="16" rx="8" fill="#B1DF1E"/>
</g>
<path d="M368.141 24.0036C368.141 25.1663 368.68 25.7476 369.757 25.7476C370.285 25.7476 370.69 25.5903 370.973 25.2756C371.261 24.9556 371.405 24.5316 371.405 24.0036C371.405 23.7209 371.362 23.4729 371.277 23.2596C371.197 23.0409 371.082 22.8596 370.933 22.7156C370.789 22.5716 370.613 22.4623 370.405 22.3876C370.197 22.3129 369.97 22.2756 369.725 22.2756C369.474 22.2756 369.25 22.3209 369.053 22.4116C368.861 22.4969 368.696 22.6169 368.557 22.7716C368.424 22.9263 368.32 23.1103 368.245 23.3236C368.176 23.5316 368.141 23.7583 368.141 24.0036ZM370.125 27.6836C370.2 27.5929 370.272 27.5049 370.341 27.4196C370.41 27.3343 370.474 27.2489 370.533 27.1636C370.042 27.4249 369.485 27.5556 368.861 27.5556C368.482 27.5556 368.104 27.4889 367.725 27.3556C367.346 27.2169 367.002 27.0089 366.693 26.7316C366.389 26.4543 366.141 26.1049 365.949 25.6836C365.757 25.2623 365.661 24.7636 365.661 24.1876C365.661 23.6596 365.757 23.1609 365.949 22.6916C366.146 22.2223 366.424 21.8116 366.781 21.4596C367.144 21.1076 367.576 20.8303 368.077 20.6276C368.578 20.4196 369.138 20.3156 369.757 20.3156C370.386 20.3156 370.949 20.4116 371.445 20.6036C371.941 20.7956 372.36 21.0649 372.701 21.4116C373.048 21.7583 373.312 22.1716 373.493 22.6516C373.68 23.1263 373.773 23.6516 373.773 24.2276C373.773 24.9903 373.658 25.6729 373.429 26.2756C373.2 26.8783 372.893 27.4463 372.509 27.9796L369.997 31.5476C369.885 31.7023 369.714 31.8329 369.485 31.9396C369.261 32.0463 369.005 32.0996 368.717 32.0996H366.429L370.125 27.6836ZM379.078 30.3556C379.356 30.3556 379.596 30.3129 379.798 30.2276C380.001 30.1423 380.166 30.0276 380.294 29.8836C380.428 29.7343 380.524 29.5609 380.582 29.3636C380.646 29.1609 380.678 28.9449 380.678 28.7156C380.678 28.4649 380.652 28.2356 380.598 28.0276C380.545 27.8196 380.457 27.6436 380.334 27.4996C380.212 27.3503 380.046 27.2356 379.838 27.1556C379.636 27.0703 379.382 27.0276 379.078 27.0276C378.774 27.0276 378.518 27.0703 378.31 27.1556C378.108 27.2356 377.945 27.3503 377.822 27.4996C377.7 27.6436 377.612 27.8196 377.558 28.0276C377.505 28.2356 377.478 28.4649 377.478 28.7156C377.478 28.9449 377.508 29.1609 377.566 29.3636C377.63 29.5609 377.726 29.7343 377.854 29.8836C377.988 30.0276 378.153 30.1423 378.35 30.2276C378.553 30.3129 378.796 30.3556 379.078 30.3556ZM379.078 22.1236C378.828 22.1236 378.617 22.1636 378.446 22.2436C378.276 22.3236 378.134 22.4303 378.022 22.5636C377.916 22.6916 377.838 22.8409 377.79 23.0116C377.742 23.1823 377.718 23.3583 377.718 23.5396C377.718 23.7423 377.737 23.9396 377.774 24.1316C377.812 24.3236 377.881 24.4943 377.982 24.6436C378.084 24.7929 378.222 24.9129 378.398 25.0036C378.574 25.0943 378.801 25.1396 379.078 25.1396C379.356 25.1396 379.582 25.0943 379.758 25.0036C379.934 24.9129 380.073 24.7929 380.174 24.6436C380.276 24.4943 380.345 24.3236 380.382 24.1316C380.42 23.9396 380.438 23.7423 380.438 23.5396C380.438 23.3583 380.414 23.1823 380.366 23.0116C380.318 22.8409 380.238 22.6916 380.126 22.5636C380.02 22.4303 379.878 22.3236 379.702 22.2436C379.532 22.1636 379.324 22.1236 379.078 22.1236ZM381.278 26.0196C381.625 26.1423 381.921 26.2943 382.166 26.4756C382.417 26.6569 382.62 26.8649 382.774 27.0996C382.934 27.3343 383.052 27.5929 383.126 27.8756C383.201 28.1529 383.238 28.4489 383.238 28.7636C383.238 29.2863 383.137 29.7609 382.934 30.1876C382.737 30.6143 382.454 30.9796 382.086 31.2836C381.724 31.5823 381.286 31.8143 380.774 31.9796C380.262 32.1449 379.697 32.2276 379.078 32.2276C378.46 32.2276 377.894 32.1449 377.382 31.9796C376.87 31.8143 376.43 31.5823 376.062 31.2836C375.7 30.9796 375.417 30.6143 375.214 30.1876C375.017 29.7609 374.918 29.2863 374.918 28.7636C374.918 28.4489 374.956 28.1529 375.03 27.8756C375.105 27.5929 375.22 27.3343 375.374 27.0996C375.534 26.8649 375.737 26.6569 375.982 26.4756C376.233 26.2943 376.532 26.1423 376.878 26.0196C376.35 25.7796 375.956 25.4489 375.694 25.0276C375.433 24.6009 375.302 24.0889 375.302 23.4916C375.302 23.0383 375.396 22.6196 375.582 22.2356C375.769 21.8463 376.03 21.5103 376.366 21.2276C376.702 20.9449 377.1 20.7236 377.558 20.5636C378.022 20.3983 378.529 20.3156 379.078 20.3156C379.628 20.3156 380.132 20.3983 380.59 20.5636C381.054 20.7236 381.454 20.9449 381.79 21.2276C382.126 21.5103 382.388 21.8463 382.574 22.2356C382.761 22.6196 382.854 23.0383 382.854 23.4916C382.854 24.0889 382.724 24.6009 382.462 25.0276C382.201 25.4489 381.806 25.7796 381.278 26.0196ZM389.847 23.2676C389.847 23.6943 389.77 24.0836 389.615 24.4356C389.461 24.7876 389.255 25.0916 388.999 25.3476C388.743 25.5983 388.445 25.7929 388.103 25.9316C387.767 26.0703 387.415 26.1396 387.047 26.1396C386.642 26.1396 386.269 26.0703 385.927 25.9316C385.591 25.7929 385.298 25.5983 385.047 25.3476C384.802 25.0916 384.61 24.7876 384.471 24.4356C384.333 24.0836 384.263 23.6943 384.263 23.2676C384.263 22.8249 384.333 22.4249 384.471 22.0676C384.61 21.7049 384.802 21.3956 385.047 21.1396C385.298 20.8836 385.591 20.6863 385.927 20.5476C386.269 20.4036 386.642 20.3316 387.047 20.3316C387.453 20.3316 387.826 20.4036 388.167 20.5476C388.514 20.6863 388.81 20.8836 389.055 21.1396C389.306 21.3956 389.501 21.7049 389.639 22.0676C389.778 22.4249 389.847 22.8249 389.847 23.2676ZM387.943 23.2676C387.943 22.9956 387.919 22.7716 387.871 22.5956C387.829 22.4143 387.767 22.2703 387.687 22.1636C387.607 22.0569 387.511 21.9823 387.399 21.9396C387.293 21.8969 387.175 21.8756 387.047 21.8756C386.919 21.8756 386.802 21.8969 386.695 21.9396C386.589 21.9823 386.498 22.0569 386.423 22.1636C386.349 22.2703 386.29 22.4143 386.247 22.5956C386.205 22.7716 386.183 22.9956 386.183 23.2676C386.183 23.5236 386.205 23.7369 386.247 23.9076C386.29 24.0783 386.349 24.2143 386.423 24.3156C386.498 24.4169 386.589 24.4889 386.695 24.5316C386.802 24.5743 386.919 24.5956 387.047 24.5956C387.175 24.5956 387.293 24.5743 387.399 24.5316C387.511 24.4889 387.607 24.4169 387.687 24.3156C387.767 24.2143 387.829 24.0783 387.871 23.9076C387.919 23.7369 387.943 23.5236 387.943 23.2676ZM393.511 20.8116C393.591 20.7209 393.69 20.6383 393.807 20.5636C393.925 20.4836 394.087 20.4436 394.295 20.4436H396.103L387.319 31.7476C387.239 31.8489 387.138 31.9343 387.015 32.0036C386.898 32.0676 386.754 32.0996 386.583 32.0996H384.727L393.511 20.8116ZM396.551 29.3636C396.551 29.7903 396.474 30.1823 396.319 30.5396C396.165 30.8916 395.959 31.1956 395.703 31.4516C395.447 31.7023 395.149 31.8969 394.807 32.0356C394.471 32.1743 394.119 32.2436 393.751 32.2436C393.346 32.2436 392.973 32.1743 392.631 32.0356C392.295 31.8969 392.002 31.7023 391.751 31.4516C391.506 31.1956 391.314 30.8916 391.175 30.5396C391.037 30.1823 390.967 29.7903 390.967 29.3636C390.967 28.9209 391.037 28.5209 391.175 28.1636C391.314 27.8009 391.506 27.4916 391.751 27.2356C392.002 26.9796 392.295 26.7823 392.631 26.6436C392.973 26.4996 393.346 26.4276 393.751 26.4276C394.157 26.4276 394.53 26.4996 394.871 26.6436C395.218 26.7823 395.514 26.9796 395.759 27.2356C396.01 27.4916 396.205 27.8009 396.343 28.1636C396.482 28.5209 396.551 28.9209 396.551 29.3636ZM394.647 29.3636C394.647 29.0969 394.623 28.8756 394.575 28.6996C394.533 28.5183 394.471 28.3743 394.391 28.2676C394.311 28.1609 394.215 28.0863 394.103 28.0436C393.997 28.0009 393.879 27.9796 393.751 27.9796C393.623 27.9796 393.506 28.0009 393.399 28.0436C393.293 28.0863 393.202 28.1609 393.127 28.2676C393.053 28.3743 392.994 28.5183 392.951 28.6996C392.909 28.8756 392.887 29.0969 392.887 29.3636C392.887 29.6196 392.909 29.8329 392.951 30.0036C392.994 30.1743 393.053 30.3103 393.127 30.4116C393.202 30.5129 393.293 30.5849 393.399 30.6276C393.506 30.6703 393.623 30.6916 393.751 30.6916C393.879 30.6916 393.997 30.6703 394.103 30.6276C394.215 30.5849 394.311 30.5129 394.391 30.4116C394.471 30.3103 394.533 30.1743 394.575 30.0036C394.623 29.8329 394.647 29.6196 394.647 29.3636Z" fill="#B1DF1E"/>
<defs>
<filter id="filter0_d_4087_43" x="0.674561" y="0.0996094" width="368.269" height="52" filterUnits="userSpaceOnUse" color-interpolation-filters="sRGB">
<feFlood flood-opacity="0" result="BackgroundImageFix"/>
<feColorMatrix in="SourceAlpha" type="matrix" values="0 0 0 0 0 0 0 0 0 0 0 0 0 0 0 0 0 0 127 0" result="hardAlpha"/>
<feOffset/>
<feGaussianBlur stdDeviation="9"/>
<feComposite in2="hardAlpha" operator="out"/>
<feColorMatrix type="matrix" values="0 0 0 0 0.782414 0 0 0 0 0.978239 0 0 0 0 0.156623 0 0 0 1 0"/>
<feBlend mode="normal" in2="BackgroundImageFix" result="effect1_dropShadow_4087_43"/>
<feBlend mode="normal" in="SourceGraphic" in2="effect1_dropShadow_4087_43" result="shape"/>
</filter>
</defs>
</svg>
